<svg width="75" height="80" viewBox="0 0 75 80" fill="none" xmlns="http://www.w3.org/2000/svg">
<path d="M2.80927 2.68423C6.4726 -0.952642 12.4796 -0.986906 15.5544 3.1526C23.4338 13.7605 27.759 26.6589 27.759 40C27.759 53.3411 23.4338 66.2394 15.5544 76.8474C12.4796 80.9869 6.47263 80.9526 2.80929 77.3158C-0.854043 73.6789 -0.749431 67.8199 2.05099 63.4927C6.55162 56.5384 8.99789 48.3944 8.99789 40C8.99789 31.6056 6.55161 23.4615 2.05098 16.5073C-0.749446 12.1801 -0.854063 6.3211 2.80927 2.68423Z" fill="#FA8244"/>
<path d="M72.1907 77.3158C68.5274 80.9526 62.5204 80.9869 59.4456 76.8474C51.5662 66.2395 47.241 53.3411 47.241 40C47.241 26.659 51.5662 13.7606 59.4456 3.15265C62.5204 -0.98686 68.5274 -0.952603 72.1907 2.68426C75.854 6.32113 75.7494 12.1802 72.949 16.5073C68.4484 23.4616 66.0021 31.6056 66.0021 40C66.0021 48.3945 68.4484 56.5385 72.949 63.4927C75.7495 67.8199 75.8541 73.6789 72.1907 77.3158Z" fill="#FA8244"/>
<path d="M3.05057 18.0641C26.2633 38.4983 52.6642 34.5392 72.052 18.0633C64.1463 30.9992 64.5171 49.3138 72.0447 61.9372C47.7339 47.7816 31.626 46.1433 3.02185 61.9377C10.7049 48.5298 10.8866 32.5633 3.05057 18.0641Z" fill="url(#paint0_linear_12323_215768)"/>
<path d="M3.05057 18.0641C26.2633 38.4983 52.6642 34.5392 72.052 18.0633C64.1463 30.9992 64.5171 49.3138 72.0447 61.9372C47.7339 47.7816 31.626 46.1433 3.02185 61.9377C10.7049 48.5298 10.8866 32.5633 3.05057 18.0641Z" fill="url(#paint1_linear_12323_215768)" fill-opacity="0.34"/>
<defs>
<linearGradient id="paint0_linear_12323_215768" x1="71.4127" y1="39.9997" x2="6.66042" y2="38.7707" gradientUnits="userSpaceOnUse">
<stop stop-color="#FF09D0" stop-opacity="0.87"/>
<stop offset="1" stop-color="#1D3CF8" stop-opacity="0.63"/>
</linearGradient>
<linearGradient id="paint1_linear_12323_215768" x1="69.7183" y1="41.5842" x2="54.4016" y2="41.6438" gradientUnits="userSpaceOnUse">
<stop stop-color="white"/>
<stop offset="1" stop-color="white" stop-opacity="0"/>
</linearGradient>
</defs>
</svg>
