<svg width="136" height="136" viewBox="0 0 136 136" fill="none" xmlns="http://www.w3.org/2000/svg">
<rect width="136" height="136" rx="68" fill="#5656FF" fill-opacity="0.6"/>
<path d="M40.8063 78.0467H44.1161V57.8948H40.8203L35.1504 61.6375V64.9194L40.5689 61.3582H40.8063V78.0467ZM49.4787 78.0467V75.2118H35.1783V78.0467H49.4787Z" fill="white"/>
<path d="M59.436 75.6586C58.1419 75.6586 57.155 75.0023 56.4753 73.6895C55.805 72.3768 55.4698 70.4682 55.4698 67.9638C55.4698 65.4593 55.805 63.5554 56.4753 62.252C57.155 60.9393 58.1419 60.2829 59.436 60.2829C60.7208 60.2829 61.6983 60.9393 62.3687 62.252C63.0483 63.5554 63.3881 65.4593 63.3881 67.9638C63.3881 70.4682 63.0483 72.3768 62.3687 73.6895C61.6983 75.0023 60.7208 75.6586 59.436 75.6586ZM54.4224 73.3683L64.5054 65.9249V62.5592L54.4224 69.9608V73.3683ZM59.436 78.4796C61.7635 78.4796 63.5557 77.5719 64.8126 75.7564C66.0695 73.9316 66.6979 71.3341 66.6979 67.9638C66.6979 64.5935 66.0695 62.0006 64.8126 60.1851C63.5557 58.3697 61.7635 57.4619 59.436 57.4619C57.0991 57.4619 55.3023 58.3697 54.0454 60.1851C52.7885 62.0006 52.1601 64.5935 52.1601 67.9638C52.1601 71.3341 52.7885 73.9316 54.0454 75.7564C55.3023 77.5719 57.0991 78.4796 59.436 78.4796Z" fill="white"/>
<path d="M77.116 75.6586C75.8219 75.6586 74.835 75.0023 74.1553 73.6895C73.485 72.3768 73.1498 70.4682 73.1498 67.9638C73.1498 65.4593 73.485 63.5554 74.1553 62.252C74.835 60.9393 75.8219 60.2829 77.116 60.2829C78.4008 60.2829 79.3784 60.9393 80.0487 62.252C80.7283 63.5554 81.0681 65.4593 81.0681 67.9638C81.0681 70.4682 80.7283 72.3768 80.0487 73.6895C79.3784 75.0023 78.4008 75.6586 77.116 75.6586ZM72.1025 73.3683L82.1854 65.9249V62.5592L72.1025 69.9608V73.3683ZM77.116 78.4796C79.4435 78.4796 81.2357 77.5719 82.4926 75.7564C83.7495 73.9316 84.3779 71.3341 84.3779 67.9638C84.3779 64.5935 83.7495 62.0006 82.4926 60.1851C81.2357 58.3697 79.4435 57.4619 77.116 57.4619C74.7791 57.4619 72.9823 58.3697 71.7254 60.1851C70.4685 62.0006 69.8401 64.5935 69.8401 67.9638C69.8401 71.3341 70.4685 73.9316 71.7254 75.7564C72.9823 77.5719 74.7791 78.4796 77.116 78.4796Z" fill="white"/>
<path d="M90.0338 67.6426C91.2628 67.6426 92.231 67.2329 92.9386 66.4136C93.6462 65.585 94 64.4632 94 63.048V62.0146C94 60.6553 93.6415 59.5707 92.9246 58.7607C92.2078 57.9414 91.2442 57.5317 90.0338 57.5317C88.8235 57.5317 87.8599 57.9414 87.143 58.7607C86.4261 59.5707 86.0677 60.6553 86.0677 62.0146V63.048C86.0677 64.4632 86.4215 65.585 87.1291 66.4136C87.8366 67.2329 88.8049 67.6426 90.0338 67.6426ZM90.0338 65.5059C89.4566 65.5059 89.0097 65.2918 88.6932 64.8635C88.3859 64.4259 88.2323 63.7975 88.2323 62.9782V62.1682C88.2323 61.3489 88.3859 60.7251 88.6932 60.2969C89.0097 59.8593 89.4566 59.6405 90.0338 59.6405C90.6111 59.6405 91.0533 59.8593 91.3605 60.2969C91.6771 60.7251 91.8354 61.3489 91.8354 62.1682V62.9782C91.8354 63.7975 91.6771 64.4259 91.3605 64.8635C91.0533 65.2918 90.6111 65.5059 90.0338 65.5059ZM99.5302 78.4238C100.759 78.4238 101.727 78.0141 102.435 77.1948C103.143 76.3662 103.496 75.249 103.496 73.8432V72.8097C103.496 71.4504 103.138 70.3612 102.421 69.5419C101.704 68.7226 100.741 68.3129 99.5302 68.3129C98.3199 68.3129 97.3563 68.7226 96.6394 69.5419C95.9225 70.3612 95.5641 71.4504 95.5641 72.8097V73.8432C95.5641 75.249 95.9179 76.3662 96.6254 77.1948C97.333 78.0141 98.3013 78.4238 99.5302 78.4238ZM99.5302 76.301C98.953 76.301 98.5061 76.0869 98.1895 75.6586C97.8823 75.2211 97.7287 74.5926 97.7287 73.7733V72.9633C97.7287 72.1441 97.8823 71.5203 98.1895 71.092C98.5061 70.6544 98.953 70.4356 99.5302 70.4356C100.107 70.4356 100.55 70.6544 100.857 71.092C101.173 71.5203 101.332 72.1441 101.332 72.9633V73.7733C101.332 74.5926 101.173 75.2211 100.857 75.6586C100.55 76.0869 100.107 76.301 99.5302 76.301ZM103.622 57.8948L85.942 75.8542V78.0467L103.622 60.0874V57.8948Z" fill="white"/>
<path d="M63.189 123.626C63.2684 122.803 63.0527 122.111 62.5418 121.551C62.0303 120.995 61.2938 120.646 60.3321 120.502C59.6799 120.405 59.099 120.432 58.5894 120.583C58.0756 120.733 57.659 120.992 57.3395 121.36C57.0157 121.727 56.8125 122.189 56.7298 122.747C56.6279 123.434 56.7453 124.01 57.0822 124.475C57.4149 124.94 58.0047 125.343 58.8516 125.683L59.6486 126.014C60.189 126.232 60.5678 126.472 60.7851 126.736C61.0017 127.004 61.0827 127.322 61.028 127.69C60.964 128.122 60.7613 128.436 60.42 128.634C60.0746 128.831 59.6301 128.889 59.0865 128.808C58.5807 128.732 58.1917 128.546 57.9196 128.248C57.6427 127.955 57.5118 127.584 57.5269 127.137L56.2726 126.95C56.2177 127.464 56.2936 127.931 56.5004 128.352C56.7031 128.772 57.0125 129.12 57.4288 129.396C57.8403 129.675 58.3408 129.859 58.9303 129.947C59.5449 130.039 60.0959 130.011 60.5833 129.866C61.0708 129.72 61.4688 129.471 61.7775 129.119C62.082 128.766 62.2738 128.324 62.3527 127.791C62.4503 127.134 62.3317 126.566 61.9966 126.088C61.6616 125.61 61.0934 125.206 60.2918 124.877L59.4929 124.559C58.9287 124.329 58.5341 124.08 58.3091 123.811C58.0841 123.541 57.9989 123.223 58.0536 122.854C58.1208 122.402 58.3439 122.064 58.723 121.843C59.102 121.621 59.578 121.552 60.1508 121.638C60.7236 121.723 61.1702 121.925 61.4905 122.242C61.8061 122.563 61.9521 122.962 61.9284 123.438L63.189 123.626Z" fill="white"/>
<path d="M47.9386 118.613L51.8927 119.966L50.946 122.743L47.2139 121.466L46.8573 122.512L50.5894 123.789L49.694 126.417L45.7399 125.063L45.3608 126.176L50.5689 127.958L53.5258 119.282L48.3177 117.5L47.9386 118.613Z" fill="white"/>
<path d="M41.7198 114.201L37.8221 121.174L35.449 119.842L34.8758 120.868L40.7728 124.177L41.346 123.152L38.9728 121.82L42.8704 114.847L41.7198 114.201Z" fill="white"/>
<path d="M33.8771 108.67L28.7876 114.824L26.6933 113.085L25.9448 113.99L31.149 118.311L31.8974 117.406L29.8031 115.667L34.8925 109.514L33.8771 108.67Z" fill="white"/>
<path d="M24.6495 100.67L27.3735 103.928L21.2739 109.049L22.1127 110.052L29.126 104.165L25.5632 99.9035L24.6495 100.67Z" fill="white"/>
<path d="M19.6656 92.487L21.7268 96.1288L19.1788 97.5767L17.2333 94.1394L16.2736 94.6847L18.2192 98.122L15.809 99.4916L13.7478 95.8499L12.7274 96.4296L15.4424 101.226L23.4009 96.7039L20.6859 91.9072L19.6656 92.487Z" fill="white"/>
<path d="M15.6786 88.8575L12.2283 90.1732L12.1971 90.0832L16.2827 86.8447L15.9622 85.9205L10.7528 85.9185L10.7215 85.8285L14.2426 84.7168L17.4348 83.6053L17.0581 82.5192L8.4158 85.5283L8.88823 86.8905L14.7484 86.814L14.7775 86.898L10.1349 90.4851L10.6052 91.8414L19.2475 88.8322L18.8708 87.746L15.6786 88.8575Z" fill="white"/>
<path d="M14.2348 73.6681L14.8716 77.8058L11.9765 78.2531L11.3755 74.3477L10.2851 74.5161L10.8861 78.4215L8.14775 78.8446L7.51098 74.7069L6.3517 74.886L7.19042 80.336L16.2328 78.9389L15.3941 73.4889L14.2348 73.6681Z" fill="white"/>
<path d="M15.1789 68.6865L8.32134 68.4909L8.32405 68.3956L15.287 64.8826L15.3216 63.6633L6.17608 63.4024L6.1427 64.5773L12.9812 64.7723L12.9785 64.8676L6.035 68.3685L6 69.6004L15.1455 69.8613L15.1789 68.6865Z" fill="white"/>
<path d="M16.507 56.5751L8.7058 54.9097L9.27258 52.2441L8.12535 51.9992L6.71699 58.6229L7.86422 58.8678L8.431 56.2022L16.2322 57.8675L16.507 56.5751Z" fill="white"/>
<path d="M22.3494 36.2689C22.8254 36.5765 23.1114 36.9604 23.2075 37.4206C23.3 37.8786 23.1882 38.3531 22.8721 38.8443C22.4986 39.4245 22.0239 39.7401 21.4478 39.7911C20.8717 39.8422 20.2089 39.6256 19.4594 39.1412L18.0367 38.2218C17.2907 37.7398 16.821 37.2271 16.6275 36.6837C16.4328 36.1345 16.521 35.5716 16.8921 34.995C17.1854 34.5395 17.5716 34.2598 18.0507 34.1562C18.5321 34.049 19.0177 34.1386 19.5075 34.4248L20.2291 33.3036C19.4113 32.8003 18.6151 32.6386 17.8405 32.8184C17.0658 32.9982 16.4151 33.4974 15.8881 34.316C15.2971 35.2343 15.1254 36.1339 15.3733 37.0147C15.6234 37.892 16.2707 38.6681 17.315 39.343L18.7377 40.2624C19.7821 40.9373 20.7546 41.2079 21.6554 41.0744C22.5585 40.9373 23.3056 40.4096 23.8967 39.4913C24.2403 38.9574 24.4368 38.4216 24.4861 37.884C24.5377 37.3428 24.4503 36.8378 24.2239 36.369C23.994 35.8979 23.6322 35.5028 23.1384 35.1837L21.5133 34.1335L19.7125 36.9311L20.6077 37.5095L21.6833 35.8385L22.3494 36.2689Z" fill="white"/>
<path d="M28.8066 31.2539C28.3811 31.7077 27.9079 31.9247 27.387 31.905C26.8661 31.8853 26.3453 31.6304 25.8247 31.1403L21.5413 27.1076L20.6382 28.0706L24.9817 32.1598C25.7518 32.8849 26.5539 33.2419 27.3878 33.2308C28.2187 33.2169 28.9858 32.8349 29.6892 32.0848C30.3925 31.3348 30.7253 30.5439 30.6875 29.7121C30.6466 28.8774 30.2411 28.0975 29.4709 27.3725L25.1274 23.2833L24.2244 24.2463L28.5078 28.279C29.0284 28.7691 29.3147 29.274 29.3668 29.7938C29.4188 30.3135 29.2321 30.8002 28.8066 31.2539Z" fill="white"/>
<path d="M32.1206 19.4051L32.1563 19.3787L38.5067 24.2543L39.6348 23.4214L31.8846 17.7563L30.7005 18.6307L33.8058 27.7255L34.8777 26.934L32.1206 19.4051ZM35.8432 21.7465L33.3166 23.6121L33.7685 24.6121L36.6677 22.4714L35.8432 21.7465Z" fill="white"/>
<path d="M39.9451 14.0771L41.4668 13.3338C41.9911 13.0777 42.4606 13.0132 42.8752 13.1405C43.2936 13.2659 43.6214 13.5723 43.8585 14.0596C44.0938 14.5431 44.1299 14.9895 43.9671 15.3989C43.8042 15.8083 43.453 16.1448 42.9134 16.4084L41.4317 17.1322L39.9451 14.0771ZM43.5797 17.2703L46.6486 19.7503L47.9822 19.0988L44.6454 16.4741C45.0273 16.0896 45.255 15.625 45.3285 15.0802C45.4002 14.5316 45.3054 13.9889 45.0442 13.4521C44.6663 12.6755 44.1249 12.1813 43.42 11.9697C42.7133 11.7542 41.9401 11.8516 41.1004 12.2618L38.2736 13.6427L42.2831 21.8829L43.4628 21.3066L41.8985 18.0916L43.5797 17.2703Z" fill="white"/>
<path d="M51.7706 9.77617L51.8133 9.76422L56.0227 16.5811L57.3724 16.2037L52.1341 8.15088L50.7173 8.54711L50.3982 18.1541L51.6806 17.7954L51.7706 9.77617ZM54.4211 13.2892L51.3982 14.1346L51.4664 15.2302L54.9352 14.2601L54.4211 13.2892Z" fill="white"/>
<path d="M61.4034 15.6151L60.7818 8.76944L60.8766 8.76081L65.1857 15.2703L66.398 15.1598L65.5691 6.03016L64.401 6.13664L65.0208 12.9633L64.9261 12.972L60.6313 6.48027L59.4063 6.59193L60.2352 15.7216L61.4034 15.6151Z" fill="white"/>
<path d="M73.5631 15.4963L74.2857 7.53712L76.9946 7.78405L77.1008 6.61358L70.3698 6L70.2635 7.17047L72.9723 7.4174L72.2497 15.3766L73.5631 15.4963Z" fill="white"/>
<path d="M85.4396 16.8129L81.415 15.6874L82.2025 12.8604L86.0011 13.9227L86.2976 12.858L82.4991 11.7957L83.2439 9.12161L87.2685 10.2471L87.5838 9.11506L82.2829 7.63263L79.8233 16.4625L85.1242 17.9449L85.4396 16.8129Z" fill="white"/>
<path d="M94.4187 20.7862L90.663 18.9515L91.9467 16.3133L95.4916 18.045L95.975 17.0514L92.4302 15.3197L93.6444 12.8242L97.4001 14.6589L97.9142 13.6025L92.9673 11.1859L88.9578 19.4261L93.9047 21.8427L94.4187 20.7862Z" fill="white"/>
<path d="M105.897 31.0772L108.73 28.4105L111.348 31.2023L112.175 30.4237L109.557 27.6318L111.71 25.6046L114.58 28.665L115.435 27.8602L111.657 23.8322L104.99 30.1096L105.897 31.0772Z" fill="white"/>
<path d="M118.463 33.7612L119.381 35.1866C119.697 35.6778 119.816 36.1372 119.74 36.5649C119.665 36.9961 119.4 37.3586 118.946 37.6524C118.495 37.9439 118.056 38.033 117.631 37.9196C117.206 37.8063 116.831 37.4969 116.506 36.9914L115.612 35.6033L118.463 33.7612ZM115.731 37.7568L113.638 41.1048L114.442 42.3541L116.647 38.7223C117.073 39.0566 117.561 39.2279 118.109 39.2362C118.661 39.2423 119.188 39.0835 119.689 38.7598C120.413 38.2915 120.839 37.6941 120.965 36.9677C121.094 36.2389 120.906 35.4812 120.399 34.6946L118.695 32.0465L111.006 37.0152L111.717 38.1204L114.717 36.1818L115.731 37.7568Z" fill="white"/>
<path d="M121.901 49.6755L123.243 49.1205C124.415 48.6359 125.214 47.9779 125.64 47.1466C126.07 46.3137 126.083 45.4079 125.68 44.4291C125.277 43.4504 124.63 42.8176 123.739 42.5307C122.852 42.2423 121.823 42.3404 120.65 42.8251L119.308 43.38C118.136 43.8647 117.335 44.5234 116.905 45.3563C116.479 46.1876 116.468 47.0926 116.871 48.0714C117.274 49.0502 117.919 49.6838 118.806 49.9722C119.697 50.2591 120.729 50.1601 121.901 49.6755ZM117.985 47.611C117.736 47.008 117.768 46.4453 118.078 45.9228C118.389 45.4004 118.97 44.963 119.822 44.6108L121.152 44.0607C122.004 43.7085 122.724 43.6079 123.312 43.7588C123.9 43.9097 124.318 44.2866 124.567 44.8896C124.815 45.4925 124.784 46.0552 124.473 46.5777C124.162 47.1002 123.581 47.5375 122.729 47.8897L121.399 48.4398C120.547 48.792 119.827 48.8926 119.239 48.7417C118.651 48.5908 118.233 48.2139 117.985 47.611Z" fill="white"/>
<path d="M122.74 54.3258L126.327 53.4498L126.347 53.543L121.891 56.2479L122.095 57.2047L127.264 57.8552L127.283 57.9484L123.652 58.6132L120.346 59.3187L120.586 60.4434L129.534 58.5332L129.234 57.1227L123.41 56.4693L123.391 56.3823L128.443 53.4008L128.144 51.9965L119.196 53.9067L119.435 55.0314L122.74 54.3258Z" fill="white"/>
<path d="M120.342 76.9584L128.225 78.1764L127.811 80.87L128.97 81.0491L130 74.3559L128.841 74.1768L128.426 76.8704L120.543 75.6524L120.342 76.9584Z" fill="white"/>
<path d="M117.113 88.5716L125.755 91.5807L126.184 90.3445L122.501 89.062L123.683 85.6535L127.366 86.9359L127.795 85.6997L119.152 82.6906L118.724 83.9268L122.575 85.2677L121.393 88.6762L117.542 87.3354L117.113 88.5716Z" fill="white"/>
<path d="M113.775 97.4858L115.836 93.8441L118.384 95.292L116.439 98.7292L117.398 99.2746L119.344 95.8373L121.754 97.2069L119.693 100.849L120.713 101.428L123.428 96.6317L115.47 92.1093L112.755 96.906L113.775 97.4858Z" fill="white"/>
<path d="M110.127 114.154L104.289 107.096L102.229 108.806C101.23 109.636 100.725 110.556 100.715 111.566C100.704 112.575 101.187 113.67 102.164 114.851C103.127 116.015 104.103 116.681 105.093 116.849C106.08 117.02 107.071 116.692 108.067 115.865L110.127 114.154ZM108.358 114.097L107.431 114.867C106.728 115.451 106.029 115.668 105.335 115.518C104.64 115.375 103.927 114.861 103.196 113.978C102.451 113.078 102.07 112.272 102.053 111.56C102.038 110.852 102.384 110.205 103.09 109.618L104.017 108.848L108.358 114.097Z" fill="white"/>
<path d="M92.0668 116.942L95.7123 114.896L97.1437 117.457L93.7029 119.388L94.242 120.352L97.6828 118.421L99.0368 120.844L95.3913 122.889L95.9644 123.915L100.766 121.22L96.2953 113.222L91.4936 115.917L92.0668 116.942Z" fill="white"/>
<path d="M87.7924 125.691L87.7504 125.706L83.1608 119.14L81.8348 119.594L87.5217 127.335L88.9138 126.859L88.687 117.249L87.4269 117.68L87.7924 125.691ZM84.9467 122.335L87.9168 121.319L87.7865 120.229L84.3784 121.395L84.9467 122.335Z" fill="white"/>
<path d="M73.0081 122.339L77.2037 121.714L78.3742 129.6L79.6661 129.408L78.3202 120.34L72.8327 121.158L73.0081 122.339Z" fill="white"/>
</svg>
