<svg width="102" height="102" viewBox="0 0 102 102" fill="none" xmlns="http://www.w3.org/2000/svg">
<rect width="102" height="102" rx="51" fill="#FA8244"/>
<rect width="102" height="102" rx="51" fill="#FA8244"/>
<g clip-path="url(#clip0_11295_198115)">
<g clip-path="url(#clip1_11295_198115)">
<path d="M32.919 66.4796C32.5286 65.9584 31.7647 64.9513 30.0961 65.6093C29.1263 65.9918 27.9342 67.2636 29.0109 69.9939C29.6946 71.7276 31.0608 73.0452 32.7637 72.3736C33.8844 71.9316 34.4037 70.945 34.1752 69.6649L36.1894 68.8706C36.6211 71.1345 35.8251 73.1404 33.4007 74.0966C30.8304 75.1102 28.3009 74.0881 26.9882 70.7595C25.6534 67.3748 26.9231 64.8906 29.4121 63.909C32.3058 62.7678 34.2615 64.3042 34.9332 65.6852L32.919 66.4796Z" fill="white"/>
<path d="M38.2127 66.7743L39.5083 63.1213L41.8147 62.2118L40.3897 65.9741L44.7093 69.3535L42.4559 70.2422L39.5337 67.8369L39.0745 68.9596L39.9674 71.2236L38.0879 71.9648L35.2609 64.7964L37.1404 64.0552L38.2127 66.7743Z" fill="white"/>
<path d="M50.1658 63.0436C51.1848 65.6275 49.9258 67.5134 48.0069 68.2702C46.0911 69.0258 43.8765 68.5301 42.8571 65.9452C41.8369 63.3583 43.1164 61.483 45.0322 60.7274C46.9511 59.9706 49.1466 60.4592 50.1658 63.0436ZM44.783 65.1664C45.1452 66.0848 45.9277 67.253 47.3799 66.6803C48.8326 66.1074 48.6005 64.7384 48.2393 63.8226C47.876 62.9013 47.1109 61.7419 45.6583 62.3148C44.2061 62.8875 44.4207 64.2476 44.783 65.1664Z" fill="white"/>
<path d="M55.8202 56.6863L58.6474 63.8552L56.7679 64.5965L54.5357 58.9362L52.5244 59.7294L53.3962 61.9399C54.4775 64.6817 53.9931 65.8721 52.6726 66.3928C52.3442 66.5224 51.7864 66.6811 51.4674 66.6868L50.9146 65.2851C50.9644 65.2976 51.2137 65.229 51.4917 65.1193C52.0564 64.8967 52.2387 64.5029 51.3778 62.3202L50.053 58.9607L55.8202 56.6863Z" fill="white"/>
<path d="M59.7323 58.286L61.0279 54.6331L63.3343 53.7235L61.9067 57.4868L66.2289 60.8652L63.9755 61.7539L61.0563 59.3474L60.5941 60.4713L61.4869 62.7353L59.6074 63.4766L56.7804 56.3081L58.6599 55.5669L59.7323 58.286Z" fill="white"/>
<path d="M71.6862 54.5565C72.7052 57.1404 71.4492 59.0252 69.5304 59.7819C67.6115 60.5387 65.4 60.0418 64.3805 57.4569C63.3603 54.87 64.6368 52.9959 66.5557 52.2391C68.4746 51.4824 70.667 51.9721 71.6862 54.5565ZM66.307 56.678C66.6691 57.5963 67.4512 58.7647 68.9034 58.192C70.3494 57.6217 70.127 56.2489 69.7658 55.3331C69.4025 54.4118 68.6278 53.2562 67.1817 53.8265C65.7296 54.3992 65.9446 55.7591 66.307 56.678Z" fill="white"/>
<path d="M70.8855 50.7446L74.1218 49.4683C75.7228 48.8369 77.1522 49.03 77.6242 50.2269C77.9497 51.0523 77.5722 51.8145 76.8987 52.2976C77.7009 52.1836 78.6999 52.3307 79.1621 53.5028C79.6859 54.8308 78.9291 55.8569 77.3054 56.4973L73.7129 57.9141L70.8855 50.7446ZM73.906 52.9071L75.1311 52.4239C75.7548 52.178 76.0978 51.7541 75.8761 51.192C75.6455 50.6072 75.1366 50.5618 74.5105 50.8088L73.2713 51.2975L73.906 52.9071ZM75.0793 55.882L76.4613 55.337C77.1556 55.0632 77.5013 54.6802 77.2219 53.9718C76.975 53.3456 76.4082 53.2345 75.7149 53.5079L74.3545 54.0444L75.0793 55.882Z" fill="white"/>
<path d="M86.0388 48.8952C87.0578 51.4791 85.8044 53.3628 83.883 54.1206C81.9666 54.8763 79.7496 54.3817 78.7302 51.7968C77.7099 49.2099 78.992 47.3335 80.9083 46.5778C82.8297 45.82 85.0196 46.3108 86.0388 48.8952ZM80.6566 51.0178C81.0187 51.9361 81.8058 53.1026 83.256 52.5307C84.7081 51.958 84.4741 50.5898 84.1129 49.674C83.7496 48.7526 82.9865 47.5924 81.5343 48.1651C80.0842 48.737 80.2942 50.099 80.6566 51.0178Z" fill="white"/>
<path d="M38.0019 58.6533C39.6034 58.0217 43.4365 56.1859 45.535 52.8716L46.1787 54.5039L52.1251 52.1588L49.3005 44.9789L50.7698 41.4294L60.019 49.0457L67.1537 46.232L53.4726 35.533L57.9858 23.6093L50.6822 26.4897L46.573 38.0628L40.0477 21.517L34.0953 23.8644L35.1277 26.4821C32.5478 25.2508 29.0292 24.9377 24.4477 26.7445C14.5309 30.6554 15.0484 37.4228 16.3802 40.7999C18.2103 45.4404 21.7219 47.0355 26.4827 46.3753L33.2417 45.4624C36.8079 44.9842 39.3641 44.6577 40.3126 47.063C41.5778 50.271 38.4978 52.362 35.4583 53.5607C29.8873 55.7577 27.6795 52.8754 26.9974 51.1457L20.8765 53.5596C22.3741 57.357 26.861 63.047 38.0019 58.6533ZM34.8502 38.7842L26.6667 39.9109C25.281 40.1168 23.0964 40.3907 22.1492 37.9889C21.0669 35.2446 23.6138 33.1662 26.0609 32.2011C31.6314 30.0043 33.4227 33.0561 34.1366 34.3815L37.6903 32.98L39.9426 38.6912C38.3385 38.444 36.6046 38.5564 34.8502 38.7842Z" fill="white"/>
</g>
<path d="M34.7174 80.727L37.9526 88.9305L36.4201 89.5349L32.6632 80.0087L34.0749 79.4519L34.7174 80.727ZM40.0108 81.0129L40.0634 81.1465C40.2607 81.6468 40.3845 82.1344 40.4346 82.6094C40.4873 83.0785 40.4619 83.5172 40.3584 83.9254C40.2574 84.3277 40.0759 84.681 39.8137 84.9853C39.5516 85.2895 39.2043 85.5269 38.7719 85.6974C38.3437 85.8663 37.9376 85.9358 37.5535 85.906C37.172 85.8703 36.8134 85.7497 36.4775 85.5441C36.1417 85.3385 35.8282 85.0653 35.5371 84.7246C35.2485 84.3779 34.983 83.978 34.7406 83.5249L34.5375 83.0098C34.3936 82.4836 34.3063 81.9889 34.2756 81.5258C34.2491 81.0611 34.2875 80.6369 34.3909 80.2532C34.4944 79.8695 34.6733 79.5344 34.9277 79.2479C35.1821 78.9614 35.5213 78.7345 35.9453 78.5673C36.3777 78.3968 36.7948 78.3303 37.1966 78.3678C37.5968 78.401 37.9723 78.5273 38.3233 78.7465C38.6726 78.9614 38.9898 79.2625 39.2748 79.6498C39.5581 80.0329 39.8034 80.4872 40.0108 81.0129ZM38.5309 81.7509L38.4782 81.6174C38.3528 81.2994 38.2069 81.0165 38.0406 80.7685C37.8725 80.5164 37.684 80.3115 37.4748 80.1539C37.2657 79.9963 37.039 79.8996 36.7946 79.8637C36.5527 79.8219 36.294 79.8554 36.0185 79.964C35.7471 80.0711 35.5324 80.2096 35.3741 80.3798C35.2142 80.5458 35.1003 80.7352 35.0324 80.9481C34.9645 81.1611 34.9372 81.3898 34.9504 81.6345C34.9619 81.8749 35.0022 82.126 35.0711 82.3878L35.5577 83.6215C35.7289 83.9067 35.9262 84.1523 36.1494 84.3581C36.3727 84.564 36.6268 84.699 36.9117 84.763C37.1991 84.8211 37.5209 84.7799 37.877 84.6395C38.1526 84.5308 38.3645 84.3786 38.5127 84.183C38.6609 83.9874 38.7555 83.7615 38.7965 83.5053C38.8401 83.2431 38.8372 82.9626 38.7879 82.6636C38.7386 82.3646 38.6529 82.0604 38.5309 81.7509ZM45.7798 82.9337C45.2711 83.1343 44.7785 83.2331 44.302 83.2299C43.8282 83.2208 43.3877 83.1226 42.9807 82.9353C42.578 82.7463 42.22 82.4784 41.9069 82.1316C41.5938 81.7848 41.3444 81.3761 41.1588 80.9056L41.0585 80.6512C40.8462 80.1128 40.7323 79.5943 40.717 79.0958C40.7017 78.5972 40.7729 78.138 40.9306 77.7182C41.0867 77.2941 41.3229 76.9242 41.6393 76.6084C41.9556 76.2926 42.3364 76.0469 42.7815 75.8713C43.2733 75.6774 43.7362 75.5903 44.1703 75.6102C44.6043 75.6301 45.0015 75.7429 45.3619 75.9486C45.7248 76.1484 46.0467 76.4305 46.3276 76.7949C46.6127 77.1577 46.8531 77.587 47.0487 78.0831L47.307 78.7381L41.9907 80.8347L41.5568 79.7345L45.3596 78.2348L45.312 78.114C45.1948 77.8418 45.0377 77.6049 44.8407 77.4034C44.6479 77.2002 44.4205 77.0645 44.1584 76.9964C43.8964 76.9282 43.5958 76.961 43.2567 77.0948C43.0023 77.1951 42.7972 77.3397 42.6414 77.5285C42.4882 77.7114 42.386 77.9305 42.3349 78.1858C42.2837 78.4412 42.2789 78.7272 42.3205 79.0439C42.3647 79.3547 42.457 79.6881 42.5975 80.0443L42.6978 80.2986C42.8165 80.5996 42.9671 80.8636 43.1497 81.0904C43.3348 81.3113 43.5455 81.4854 43.7818 81.6127C44.0182 81.7399 44.2725 81.8135 44.5449 81.8335C44.8157 81.8492 45.0973 81.7993 45.3898 81.684C45.7587 81.5385 46.058 81.3347 46.2877 81.0727C46.5175 80.8106 46.6849 80.5021 46.7899 80.1472L47.906 80.6108C47.8428 80.8856 47.7319 81.1694 47.573 81.4623C47.4125 81.7509 47.1848 82.0244 46.8899 82.2828C46.5992 82.5395 46.2292 82.7565 45.7798 82.9337ZM51.2311 76.8378L49.9084 77.3594L49.6024 76.5836L50.6708 76.1623C50.9421 76.0553 51.1441 75.934 51.2768 75.7984C51.4137 75.6611 51.491 75.5155 51.5087 75.3615C51.5289 75.2017 51.5048 75.0349 51.4362 74.861C51.376 74.7084 51.2832 74.5785 51.1576 74.4712C51.0346 74.3581 50.8728 74.2896 50.6724 74.2658C50.4719 74.242 50.2297 74.286 49.9456 74.3981C49.7125 74.49 49.5177 74.6109 49.3612 74.7608C49.209 74.909 49.1067 75.0719 49.0542 75.2493C49.0017 75.4268 49.0106 75.6045 49.0808 75.7826L47.5482 76.387C47.3793 75.9588 47.3547 75.5423 47.4743 75.1376C47.5981 74.7311 47.8331 74.3641 48.1791 74.0366C48.5251 73.7091 48.944 73.4483 49.4358 73.2544C49.8555 73.0889 50.2504 72.9846 50.6204 72.9415C50.9888 72.8942 51.323 72.9094 51.6231 72.987C51.9257 73.0587 52.1878 73.1954 52.4094 73.3971C52.6335 73.5928 52.81 73.8539 52.9387 74.1803C53.0307 74.4135 53.0625 74.6557 53.0342 74.9069C53.0059 75.1581 52.9196 75.4052 52.7754 75.6482C52.6296 75.887 52.4258 76.1095 52.1641 76.3155C51.9067 76.5199 51.5957 76.694 51.2311 76.8378ZM49.7328 76.9143L51.0556 76.3926C51.4626 76.2321 51.8388 76.1303 52.1843 76.0871C52.5281 76.0397 52.8361 76.0505 53.1083 76.1195C53.3804 76.1886 53.6138 76.3145 53.8084 76.4974C54.0056 76.6744 54.161 76.907 54.2747 77.1953C54.4018 77.5175 54.4464 77.8355 54.4085 78.1493C54.3731 78.4572 54.2634 78.7503 54.0792 79.0287C53.8993 79.3054 53.6539 79.5589 53.3431 79.7893C53.0322 80.0197 52.6669 80.2176 52.2472 80.3831C51.7893 80.5637 51.3141 80.6629 50.8215 80.6809C50.3331 80.6971 49.8863 80.6014 49.4811 80.3938C49.0785 80.1803 48.7793 79.8255 48.5837 79.3295L50.1163 78.7251C50.1848 78.8989 50.3022 79.0412 50.4684 79.152C50.6346 79.2629 50.8365 79.3277 51.0742 79.3467C51.3103 79.3614 51.5682 79.3135 51.848 79.2032C52.1363 79.0895 52.354 78.9522 52.5012 78.7912C52.6467 78.6261 52.7347 78.4518 52.7652 78.2683C52.7941 78.0805 52.7751 77.9019 52.7082 77.7323C52.6179 77.5034 52.5007 77.3365 52.3565 77.2317C52.2123 77.1269 52.0365 77.0787 51.8291 77.087C51.62 77.091 51.3777 77.1474 51.1022 77.2561L50.0338 77.6774L49.7328 76.9143ZM57.044 75.7578L57.9159 70.0497L59.4484 69.4453L62.162 76.326L60.6294 76.9304L58.7961 72.2818L57.9267 77.9963L56.3942 78.6007L53.6806 71.72L55.2132 71.1156L57.044 75.7578ZM62.3165 68.3142L63.8491 67.7098L64.7283 70.1628C64.9846 70.8749 65.1423 71.5108 65.2014 72.0705C65.2604 72.6302 65.2462 73.1281 65.1586 73.5644C65.0693 73.9964 64.9261 74.3786 64.729 74.7111C64.5362 75.0419 64.3101 75.3319 64.0507 75.5812L63.5992 75.7592L63.1227 74.551L63.3339 74.453C63.4393 74.1861 63.5193 73.9292 63.5738 73.6823C63.6309 73.4296 63.6592 73.1661 63.6589 72.8919C63.6568 72.6135 63.6177 72.3031 63.5415 71.9609C63.4696 71.6169 63.3543 71.219 63.1957 70.7672L62.3165 68.3142ZM62.7235 68.1537L67.0859 66.4333L69.7995 73.314L68.2733 73.9159L66.0713 68.3325L63.2351 69.451L62.7235 68.1537ZM62.7679 74.6762L70.2592 71.7219L71.5482 74.9905L70.0156 75.5949L69.2081 73.5473L64.8011 75.2852L65.6087 77.3329L64.0507 77.9474L62.7679 74.6762ZM74.918 71.4424C74.4093 71.643 73.9167 71.7418 73.4402 71.7386C72.9664 71.7295 72.5259 71.6313 72.1189 71.444C71.7162 71.255 71.3582 70.9871 71.0451 70.6403C70.732 70.2935 70.4826 69.8848 70.297 69.4142L70.1967 69.1599C69.9844 68.6215 69.8705 68.103 69.8552 67.6044C69.8398 67.1059 69.911 66.6467 70.0688 66.2269C70.2249 65.8028 70.4611 65.4329 70.7775 65.1171C71.0938 64.8012 71.4746 64.5556 71.9197 64.38C72.4115 64.1861 72.8744 64.099 73.3084 64.1189C73.7425 64.1388 74.1397 64.2516 74.5 64.4573C74.863 64.6571 75.1849 64.9392 75.4658 65.3036C75.7509 65.6664 75.9913 66.0957 76.1869 66.5918L76.4452 67.2468L71.1288 69.3434L70.695 68.2432L74.4978 66.7435L74.4502 66.6227C74.333 66.3504 74.1759 66.1136 73.9789 65.912C73.7861 65.7089 73.5586 65.5732 73.2966 65.5051C73.0346 65.4369 72.734 65.4697 72.3949 65.6035C72.1405 65.7038 71.9354 65.8484 71.7796 66.0372C71.6264 66.2201 71.5242 66.4392 71.473 66.6945C71.4219 66.9499 71.4171 67.2359 71.4587 67.5526C71.5029 67.8634 71.5952 68.1968 71.7357 68.553L71.836 68.8073C71.9547 69.1083 72.1053 69.3723 72.2879 69.5991C72.473 69.82 72.6837 69.9941 72.92 70.1214C73.1564 70.2486 73.4107 70.3222 73.6831 70.3421C73.9539 70.3578 74.2355 70.308 74.528 70.1927C74.8969 70.0472 75.1962 69.8434 75.4259 69.5813C75.6557 69.3193 75.8231 69.0108 75.928 68.6558L77.0441 69.1195C76.981 69.3943 76.8701 69.6781 76.7112 69.971C76.5507 70.2596 76.323 70.5331 76.0281 70.7915C75.7374 71.0482 75.3674 71.2652 74.918 71.4424ZM81.9365 63.8981L82.413 65.1063L78.8518 66.5108L78.3753 65.3025L81.9365 63.8981ZM77.6868 62.2526L80.4004 69.1333L78.8678 69.7377L76.1543 62.857L77.6868 62.2526ZM81.9094 60.5873L84.623 67.468L83.0904 68.0725L80.3768 61.1917L81.9094 60.5873ZM86.7361 58.6838L89.4497 65.5645L87.9107 66.1714L85.1971 59.2907L86.7361 58.6838ZM88.9936 57.7935L89.4701 59.0017L83.4543 61.3742L82.9778 60.166L88.9936 57.7935Z" fill="white"/>
</g>
<defs>
<clipPath id="clip0_11295_198115">
<rect width="63" height="63" fill="white" transform="translate(11.6387 31.7539) rotate(-21.5229)"/>
</clipPath>
<clipPath id="clip1_11295_198115">
<rect width="63" height="48" fill="white" transform="translate(11.6387 31.7539) rotate(-21.5229)"/>
</clipPath>
</defs>
</svg>
