<svg width="1031" height="948" viewBox="0 0 1031 948" fill="none" xmlns="http://www.w3.org/2000/svg">
<rect x="353.124" width="20" height="536" transform="rotate(41.2095 353.124 0)" fill="white" fill-opacity="0.02"/>
<rect x="383.216" y="26.3525" width="20" height="536" transform="rotate(41.2095 383.216 26.3525)" fill="white" fill-opacity="0.02"/>
<rect x="413.309" y="52.7051" width="20" height="536" transform="rotate(41.2095 413.309 52.7051)" fill="white" fill-opacity="0.02"/>
<rect x="443.401" y="79.0576" width="20" height="536" transform="rotate(41.2095 443.401 79.0576)" fill="white" fill-opacity="0.02"/>
<rect x="473.493" y="105.41" width="20" height="536" transform="rotate(41.2095 473.493 105.41)" fill="white" fill-opacity="0.02"/>
<rect x="503.585" y="131.763" width="20" height="536" transform="rotate(41.2095 503.585 131.763)" fill="white" fill-opacity="0.02"/>
<rect x="533.678" y="158.115" width="20" height="536" transform="rotate(41.2095 533.678 158.115)" fill="white" fill-opacity="0.02"/>
<rect x="563.77" y="184.468" width="20" height="536" transform="rotate(41.2095 563.77 184.468)" fill="white" fill-opacity="0.02"/>
<rect x="593.862" y="210.82" width="20" height="536" transform="rotate(41.2095 593.862 210.82)" fill="white" fill-opacity="0.02"/>
<rect x="623.954" y="237.173" width="20" height="536" transform="rotate(41.2095 623.954 237.173)" fill="white" fill-opacity="0.02"/>
<rect x="654.046" y="263.525" width="20" height="536" transform="rotate(41.2095 654.046 263.525)" fill="white" fill-opacity="0.02"/>
<rect x="684.139" y="289.878" width="20" height="536" transform="rotate(41.2095 684.139 289.878)" fill="white" fill-opacity="0.02"/>
<rect x="714.231" y="316.23" width="20" height="536" transform="rotate(41.2095 714.231 316.23)" fill="white" fill-opacity="0.02"/>
<rect x="744.323" y="342.583" width="20" height="536" transform="rotate(41.2095 744.323 342.583)" fill="white" fill-opacity="0.02"/>
<rect x="774.416" y="368.936" width="20" height="536" transform="rotate(41.2095 774.416 368.936)" fill="white" fill-opacity="0.02"/>
<rect x="804.508" y="395.288" width="20" height="536" transform="rotate(41.2095 804.508 395.288)" fill="white" fill-opacity="0.02"/>
<rect x="834.6" y="421.641" width="20" height="536" transform="rotate(41.2095 834.6 421.641)" fill="white" fill-opacity="0.02"/>
<rect x="864.692" y="447.993" width="20" height="536" transform="rotate(41.2095 864.692 447.993)" fill="white" fill-opacity="0.02"/>
<rect x="894.785" y="474.346" width="20" height="536" transform="rotate(41.2095 894.785 474.346)" fill="white" fill-opacity="0.02"/>
<rect x="924.876" y="500.698" width="20" height="536" transform="rotate(41.2095 924.876 500.698)" fill="white" fill-opacity="0.02"/>
<rect x="954.969" y="527.051" width="20" height="536" transform="rotate(41.2095 954.969 527.051)" fill="white" fill-opacity="0.02"/>
<rect x="985.061" y="553.403" width="20" height="536" transform="rotate(41.2095 985.061 553.403)" fill="white" fill-opacity="0.02"/>
<rect x="1015.15" y="579.756" width="20" height="536" transform="rotate(41.2095 1015.15 579.756)" fill="white" fill-opacity="0.02"/>
</svg>
