<svg width="200" height="100" viewBox="0 0 200 100" fill="none" xmlns="http://www.w3.org/2000/svg">
<path d="M15.158 22.2422H43.566C51.904 22.3122 57.946 24.7162 61.692 29.4502C65.438 34.1842 66.674 40.6502 65.402 48.8482C64.908 52.5942 63.812 56.2682 62.116 59.8722C60.49 63.4762 58.23 66.7262 55.332 69.6242C51.798 73.2982 48.018 75.6302 43.99 76.6202C39.962 77.6102 35.792 78.1042 31.482 78.1042H18.762L14.734 98.2442H0L15.158 22.2422ZM27.56 34.3262L21.2 66.1262C21.624 66.1962 22.048 66.2322 22.472 66.2322C22.966 66.2322 23.462 66.2322 23.956 66.2322C30.74 66.3022 36.394 65.6322 40.916 64.2182C45.438 62.7342 48.478 57.5762 50.032 48.7422C51.304 41.3222 50.032 37.0462 46.216 35.9162C42.47 34.7862 37.772 34.2562 32.118 34.3262C31.27 34.3962 30.458 34.4322 29.68 34.4322C28.974 34.4322 28.232 34.4322 27.454 34.4322L27.56 34.3262Z" fill="white"/>
<path d="M82.1859 2H96.8139L92.6799 22.246H105.824C113.032 22.388 118.402 23.872 121.936 26.698C125.54 29.524 126.6 34.896 125.116 42.81L118.014 78.108H103.174L109.958 44.4C110.664 40.866 110.452 38.358 109.322 36.874C108.192 35.39 105.754 34.648 102.008 34.648L90.2419 34.542L81.5499 78.108H66.9219L82.1859 2Z" fill="white"/>
<path d="M140.824 22.2422H169.232C177.57 22.3122 183.612 24.7162 187.358 29.4502C191.104 34.1842 192.34 40.6502 191.068 48.8482C190.574 52.5942 189.478 56.2682 187.782 59.8722C186.156 63.4762 183.896 66.7262 180.998 69.6242C177.464 73.2982 173.684 75.6302 169.656 76.6202C165.628 77.6102 161.458 78.1042 157.148 78.1042H144.428L140.4 98.2442H125.666L140.824 22.2422ZM153.226 34.3262L146.866 66.1262C147.29 66.1962 147.714 66.2322 148.138 66.2322C148.632 66.2322 149.128 66.2322 149.622 66.2322C156.406 66.3022 162.06 65.6322 166.582 64.2182C171.104 62.7342 174.144 57.5762 175.698 48.7422C176.97 41.3222 175.698 37.0462 171.882 35.9162C168.136 34.7862 163.438 34.2562 157.784 34.3262C156.936 34.3962 156.124 34.4322 155.346 34.4322C154.64 34.4322 153.898 34.4322 153.12 34.4322L153.226 34.3262Z" fill="white"/>
</svg>
