<svg width="200" height="100" viewBox="0 0 200 100" fill="none" xmlns="http://www.w3.org/2000/svg">
<path fill-rule="evenodd" clip-rule="evenodd" d="M72.4707 19.9219H86.6075L50.9115 81.4349L14.9805 19.9219H29.4388L50.9115 56.9539L72.4707 19.9219Z" fill="white"/>
<path fill-rule="evenodd" clip-rule="evenodd" d="M59.1108 19.9062H72.5561L50.8928 57.0155L29.4033 19.9062H42.6384L50.8928 34.1927L59.1108 19.9062Z" fill="white" fill-opacity="0.4"/>
<path fill-rule="evenodd" clip-rule="evenodd" d="M95.0439 32.0492C95.0439 31.5954 95.2958 31.2173 95.7997 30.9147C96.3035 30.6122 96.8302 30.4609 97.3798 30.4609C98.1431 30.4609 98.6164 30.7483 98.7996 31.3232L106.861 58.2783L114.876 31.3232C115.09 30.7484 115.548 30.4609 116.25 30.4609C116.83 30.4609 117.372 30.6273 117.876 30.9601C118.38 31.2929 118.631 31.671 118.631 32.0946C118.631 32.1249 118.624 32.1702 118.609 32.2307C118.593 32.2912 118.586 32.3518 118.586 32.4123L109.288 62.5895C108.952 63.4668 108.143 63.9054 106.861 63.9054C105.578 63.9054 104.8 63.4668 104.525 62.5895L95.136 32.4123C95.0749 32.2307 95.0444 32.1097 95.0444 32.0492H95.0439ZM118.992 55.283V43.4848C118.992 43.1217 119.183 42.8041 119.565 42.5318C119.947 42.2595 120.397 42.1234 120.916 42.1234C121.405 42.1234 121.84 42.2671 122.221 42.5545C122.603 42.8419 122.794 43.152 122.794 43.4847V55.283C122.794 56.6444 123.313 57.8696 124.351 58.9587C125.389 60.0478 126.626 60.5924 128.061 60.5924C129.466 60.5924 130.687 60.0554 131.725 58.9814C132.763 57.9075 133.282 56.6746 133.282 55.283V43.4387C133.282 43.1059 133.473 42.8034 133.855 42.5311C134.236 42.2588 134.687 42.1227 135.206 42.1227C135.756 42.1227 136.206 42.2513 136.557 42.5084C136.908 42.7656 137.084 43.0757 137.084 43.4387V55.283C137.084 57.6125 136.191 59.647 134.404 61.3865C132.618 63.126 130.504 63.9958 128.061 63.9958C125.588 63.9958 123.458 63.126 121.672 61.3865C119.886 59.647 118.992 57.6125 118.992 55.283H118.992ZM140.192 55.1923V50.4275C140.192 48.098 141.085 46.0862 142.871 44.392C144.658 42.6979 146.803 41.8508 149.306 41.8508C151.688 41.8508 153.749 42.645 155.49 44.2333C157.23 45.8215 158.1 47.8106 158.1 50.2006C158.1 51.0779 157.993 51.7813 157.78 52.3108C157.566 52.8402 157.238 53.2183 156.795 53.4453C156.352 53.6722 155.94 53.8159 155.558 53.8764C155.177 53.9369 154.665 53.9671 154.024 53.9671H143.993V55.3285C143.993 56.9924 144.596 58.3235 145.803 59.3219C147.009 60.3203 148.573 60.8194 150.497 60.8194C151.505 60.8194 152.383 60.6681 153.131 60.3656C153.879 60.0631 154.482 59.7681 154.94 59.4808C155.398 59.1934 155.764 59.0497 156.039 59.0497C156.466 59.0497 156.833 59.2387 157.138 59.6169C157.444 59.9951 157.596 60.3808 157.596 60.774C157.596 61.4698 156.902 62.1808 155.512 62.9068C154.123 63.6329 152.405 63.9959 150.36 63.9959C147.367 63.9959 144.925 63.1867 143.032 61.5681C141.138 59.9496 140.192 57.8244 140.192 55.1924L140.192 55.1923ZM143.994 51.4258H152.467C153.261 51.4258 153.795 51.3275 154.07 51.1309C154.345 50.9342 154.482 50.5485 154.482 49.9738C154.482 48.6124 153.978 47.4174 152.971 46.3888C151.963 45.3602 150.726 44.8459 149.261 44.8459C147.826 44.8459 146.589 45.3223 145.551 46.2753C144.513 47.2282 143.994 48.4005 143.994 49.7921L143.994 51.4258ZM160.018 61.5452C160.018 60.8797 160.247 60.3124 160.705 59.8435C161.163 59.3746 161.728 59.1402 162.4 59.1402C163.041 59.1402 163.591 59.3746 164.049 59.8435C164.507 60.3125 164.736 60.8797 164.736 61.5452C164.736 62.1805 164.507 62.7327 164.049 63.2016C163.591 63.6705 163.041 63.9049 162.4 63.9049C161.728 63.9049 161.163 63.6705 160.705 63.2016C160.247 62.7327 160.018 62.1806 160.018 61.5452ZM163.402 72.391C163.402 71.9069 163.555 71.5061 163.86 71.1884C164.165 70.8708 164.532 70.7119 164.959 70.7119C166.15 70.7119 166.929 70.2733 167.295 69.396C167.661 68.5187 167.845 67.2027 167.845 65.448V43.439C167.845 43.0457 168.02 42.7281 168.371 42.4861C168.722 42.244 169.173 42.123 169.722 42.123C170.272 42.123 170.73 42.2441 171.096 42.4861C171.463 42.7281 171.646 43.0457 171.646 43.439V65.448C171.646 68.08 171.127 70.1674 170.089 71.7103C169.051 73.2532 167.478 74.0247 165.371 74.0247C164.058 74.0247 163.402 73.4801 163.402 72.391L163.402 72.391ZM167.341 34.0455C167.341 33.4707 167.57 32.9716 168.028 32.548C168.486 32.1245 169.051 31.9127 169.722 31.9127C170.364 31.9127 170.913 32.1245 171.371 32.548C171.829 32.9715 172.058 33.4707 172.058 34.0455C172.058 34.6203 171.829 35.1271 171.371 35.5657C170.913 36.0044 170.364 36.2237 169.722 36.2237C169.081 36.2237 168.524 36.0044 168.051 35.5657C167.577 35.1271 167.341 34.6203 167.341 34.0455H167.341ZM174.48 60.5466C174.48 60.1533 174.61 59.7676 174.869 59.3895C175.129 59.0113 175.442 58.8222 175.808 58.8222C176.052 58.8222 176.404 59.0038 176.862 59.3668C177.32 59.7298 177.976 60.0853 178.831 60.4332C179.686 60.7811 180.693 60.955 181.854 60.955C183.381 60.955 184.487 60.6828 185.174 60.1382C185.861 59.5937 186.205 58.913 186.205 58.0962C186.205 57.0978 185.823 56.3037 185.06 55.7137C184.296 55.1238 183.365 54.6776 182.266 54.3751C181.167 54.0725 180.068 53.7398 178.968 53.3767C177.869 53.0137 176.938 52.4086 176.174 51.5615C175.411 50.7144 175.029 49.5951 175.029 48.2035C175.029 46.4791 175.648 44.9891 176.884 43.7337C178.121 42.4782 180.006 41.8504 182.541 41.8504C184.159 41.8504 185.64 42.1 186.983 42.5992C188.327 43.0984 188.999 43.6656 188.999 44.3009C188.999 44.6639 188.854 45.0723 188.564 45.5261C188.273 45.9799 187.915 46.2068 187.487 46.2068C187.365 46.2068 186.777 45.9875 185.724 45.5488C184.67 45.1101 183.625 44.8908 182.586 44.8908C181.182 44.8908 180.136 45.216 179.449 45.8665C178.762 46.5169 178.419 47.2505 178.419 48.0674C178.419 48.9144 178.8 49.58 179.564 50.064C180.327 50.548 181.266 50.9262 182.38 51.1985C183.495 51.4708 184.602 51.8036 185.701 52.1969C186.8 52.5902 187.731 53.2633 188.495 54.2162C189.258 55.1692 189.64 56.402 189.64 57.9146C189.64 59.7903 188.968 61.2727 187.625 62.3618C186.281 63.4509 184.403 63.9954 181.991 63.9954C179.915 63.9954 178.144 63.6248 176.678 62.8836C175.213 62.1424 174.48 61.3634 174.48 60.5466L174.48 60.5466Z" fill="white"/>
</svg>
