<svg width="100" height="100" viewBox="0 0 100 100" fill="none" xmlns="http://www.w3.org/2000/svg">
<g clip-path="url(#clip0_11295_198317)">
<path d="M100 0H0V100H100V0Z" fill="white"/>
<path d="M67.1745 78.1288C69.1888 81.4177 71.8094 83.8352 76.4444 83.8352C80.338 83.8352 82.8253 81.8892 82.8253 79.2003C82.8253 75.9781 80.2698 74.8368 75.9841 72.9622L73.6348 71.9542C66.8539 69.0654 62.3491 65.4463 62.3491 57.7955C62.3491 50.7479 67.719 45.3828 76.111 45.3828C82.0856 45.3828 86.3809 47.4622 89.4761 52.9066L82.1586 57.605C80.5475 54.7161 78.8094 53.578 76.111 53.578C73.3587 53.578 71.6142 55.3241 71.6142 57.605C71.6142 60.4241 73.3602 61.5653 77.392 63.3114L79.7412 64.3177C87.7253 67.7415 92.2333 71.232 92.2333 79.0796C92.2333 87.54 85.5872 92.1749 76.6618 92.1749C67.9348 92.1749 62.2967 88.0161 59.538 82.5654L67.1745 78.1288ZM33.9793 78.9431C35.4555 81.5622 36.7983 83.7765 40.0269 83.7765C43.1142 83.7765 45.0618 82.5685 45.0618 77.8717V45.9193H54.4586V77.9987C54.4586 87.7288 48.7539 92.1574 40.4269 92.1574C32.9031 92.1574 28.546 88.2638 26.3301 83.5741L33.9793 78.9431Z" fill="#0F0F1A"/>
</g>
<defs>
<clipPath id="clip0_11295_198317">
<rect width="100" height="100" fill="white"/>
</clipPath>
</defs>
</svg>
