<svg width="73" height="100" viewBox="0 0 73 100" fill="none" xmlns="http://www.w3.org/2000/svg">
<g clip-path="url(#clip0_11295_198320)">
<path d="M46.9874 99.125C39.9204 99.125 34.7731 97.4234 31.5394 94.0203C28.3088 90.6187 26.6919 86.95 26.6919 83.0187C26.6919 81.5812 26.973 80.3719 27.5368 79.3891C28.0869 78.4193 28.8856 77.6159 29.8495 77.0625C30.8265 76.4953 32.0287 76.2125 33.4576 76.2125C34.8865 76.2125 36.0871 76.4953 37.0657 77.0625C38.0426 77.6297 38.813 78.4062 39.3768 79.3891C39.9406 80.3719 40.2217 81.5812 40.2217 83.0187C40.2217 84.7578 39.8086 86.175 38.9823 87.2719C38.1544 88.3687 37.1775 89.0859 36.0499 89.4281C37.0284 90.7875 38.5691 91.7516 40.6737 92.3187C42.7783 92.925 44.8829 93.2266 46.9874 93.2266C49.9183 93.2266 52.5681 92.4328 54.9367 90.8453C57.3037 89.2562 59.0526 86.9125 60.1802 83.8125C61.3079 80.7125 61.8717 77.1953 61.8717 73.2625C61.8717 68.9906 61.2504 65.3406 60.011 62.3172C58.8072 59.2547 57.0226 56.9859 54.654 55.5109C52.3585 54.0577 49.6996 53.2909 46.9874 53.3C45.1826 53.3 42.929 54.0562 40.2217 55.5687L35.2608 58.0641V55.5687L57.5864 25.6234H26.6919V56.7016C26.6919 59.2734 27.2557 61.3906 28.3833 63.0547C29.5109 64.7187 31.2396 65.55 33.571 65.55C35.3727 65.55 37.1029 64.9453 38.7571 63.7344C40.4218 62.5131 41.87 61.0182 43.0408 59.3125C43.1914 58.9703 43.3794 58.725 43.6046 58.5734C43.8072 58.3935 44.0675 58.2931 44.3377 58.2906C44.7508 58.2906 45.2385 58.4984 45.8039 58.9156C46.3304 59.5187 46.5929 60.2187 46.5929 61.0125C46.5282 61.5471 46.4338 62.0776 46.3102 62.6016C45.0335 65.475 43.266 67.6672 41.0108 69.1797C38.8152 70.6738 36.2216 71.4647 33.571 71.4484C26.8798 71.4484 22.256 70.125 19.701 67.4797C17.146 64.8312 15.8677 61.2391 15.8677 56.7031V25.6234H0.0810547V19.8375H15.8677V6.68125L12.2596 3.04844V0.101562H22.7452L26.6903 2.14219V19.8375L67.5082 19.725L71.5683 23.8078L46.537 48.9891C48.0524 48.3814 49.6477 47.9993 51.2727 47.8547C53.9784 47.8547 57.0226 48.725 60.4055 50.4641C63.8256 52.1656 66.4567 54.5109 68.2972 57.4953C70.1393 60.4453 71.3228 63.2812 71.8494 66.0031C72.4132 68.7266 72.6959 71.1453 72.6959 73.2625C72.6959 78.1031 71.6801 82.6016 69.6516 86.7625C67.6216 90.9203 64.5401 94.0203 60.4055 96.0625C56.2709 98.1047 51.7977 99.125 46.9874 99.125Z" fill="white"/>
</g>
<defs>
<clipPath id="clip0_11295_198320">
<rect width="73" height="100" fill="white"/>
</clipPath>
</defs>
</svg>
