<svg width="100" height="100" viewBox="0 0 100 100" fill="none" xmlns="http://www.w3.org/2000/svg">
<g clip-path="url(#clip0_11295_198322)">
<path d="M80.1332 5.11111L59.2675 36.1111C57.8246 38.2222 60.5993 40.7778 62.5971 39L83.1299 21.1111C83.6848 20.6667 84.4617 21 84.4617 21.7778V77.6667C84.4617 78.4445 83.4628 78.7778 83.0189 78.2222L20.8657 3.77778C18.8679 1.33333 15.9822 0 12.7636 0H10.5438C4.77248 0 0 4.77778 0 10.6667V89.3333C0 95.2222 4.77248 100 10.6548 100C14.3174 100 17.758 98.1111 19.7558 94.8889L40.6215 63.8889C42.0644 61.7778 39.2897 59.2222 37.2919 61L16.7592 78.7778C16.2042 79.2222 15.4273 78.8889 15.4273 78.1111V22.3333C15.4273 21.5556 16.4262 21.2222 16.8701 21.7778L79.0233 96.2222C81.0211 98.6667 84.0178 100 87.1254 100H89.3452C95.2275 100 100 95.2222 100 89.3333V10.6667C100 4.77778 95.2275 0 89.3452 0C85.5716 0 82.131 1.88889 80.1332 5.11111Z" fill="white"/>
</g>
<defs>
<clipPath id="clip0_11295_198322">
<rect width="100" height="100" fill="white"/>
</clipPath>
</defs>
</svg>
