<svg width="100" height="100" viewBox="0 0 100 100" fill="none" xmlns="http://www.w3.org/2000/svg">
<g clip-path="url(#clip0_11295_198324)">
<path d="M80.8379 17.1562H19.0947V73.2733H80.8379V17.1562Z" fill="#0F0F1A"/>
<path fill-rule="evenodd" clip-rule="evenodd" d="M99.9667 50.0038C99.9667 77.5816 77.5961 99.9373 49.9999 99.9373C22.4041 99.9373 0.0332031 77.5816 0.0332031 50.0038C0.0332031 22.4263 22.4041 0.0703125 49.9999 0.0703125C77.5961 0.0703125 99.9667 22.4263 99.9667 50.0038ZM35.8408 69.8748H26.1436C24.106 69.8748 23.0995 69.8748 22.4858 69.4825C21.8229 69.053 21.4178 68.3416 21.3687 67.5564C21.3319 66.8329 21.8352 65.9494 22.8417 64.183L46.7852 22.0075C47.804 20.2165 48.3195 19.321 48.9701 18.9899C49.6697 18.6341 50.5045 18.6341 51.2041 18.9899C51.8547 19.321 52.3703 20.2165 53.389 22.0075L58.3113 30.5942L58.3364 30.638C59.4368 32.5593 59.9948 33.5337 60.2385 34.5563C60.5084 35.6726 60.5084 36.8502 60.2385 37.9665C59.9929 38.9968 59.4406 39.9782 58.3236 41.9286L45.7466 64.1462L45.7141 64.2032C44.6065 66.1403 44.0451 67.1222 43.2671 67.8629C42.4202 68.6727 41.4013 69.2611 40.2843 69.5929C39.2655 69.8748 38.124 69.8748 35.8408 69.8748ZM60.3293 69.8748H74.2241C76.274 69.8748 77.3053 69.8748 77.9194 69.4706C78.5821 69.0411 78.9993 68.317 79.0365 67.5324C79.0718 66.8323 78.5794 65.9832 77.6147 64.3195C77.5814 64.2628 77.5482 64.2052 77.5142 64.1465L70.5542 52.2478L70.475 52.1139C69.4969 50.4611 69.0033 49.6264 68.3692 49.3038C67.6699 48.948 66.8469 48.948 66.1476 49.3038C65.5092 49.635 64.9937 50.506 63.9749 52.2601L57.0396 64.1588L57.0158 64.1998C56.0006 65.9511 55.4932 66.8263 55.5298 67.5444C55.5789 68.3296 55.984 69.053 56.6468 69.4825C57.2483 69.8748 58.2794 69.8748 60.3293 69.8748Z" fill="white"/>
</g>
<defs>
<clipPath id="clip0_11295_198324">
<rect width="100" height="100" fill="white"/>
</clipPath>
</defs>
</svg>
