<svg width="580" height="344" viewBox="0 0 580 344" fill="none" xmlns="http://www.w3.org/2000/svg">
<path d="M147 172.75C147.414 172.75 147.75 172.414 147.75 172C147.75 171.586 147.414 171.25 147 171.25V172.75ZM147 171.25H112.667V172.75H147V171.25ZM89.4167 148V76H87.9167V148H89.4167ZM112.667 171.25C99.8261 171.25 89.4167 160.841 89.4167 148H87.9167C87.9167 161.669 98.9977 172.75 112.667 172.75V171.25Z" fill="#1D1D28"/>
<path d="M147 172.75C147.414 172.75 147.75 172.414 147.75 172C147.75 171.586 147.414 171.25 147 171.25V172.75ZM147 171.25H87.5V172.75H147V171.25ZM62.75 196V268H64.25V196H62.75ZM87.5 171.25C73.831 171.25 62.75 182.331 62.75 196H64.25C64.25 183.159 74.6594 172.75 87.5 172.75V171.25Z" fill="#1D1D28"/>
<path d="M433 171.25C432.586 171.25 432.25 171.586 432.25 172C432.25 172.414 432.586 172.75 433 172.75V171.25ZM433 172.75H467.333V171.25H433V172.75ZM492.083 148V76H490.583V148H492.083ZM467.333 172.75C481.002 172.75 492.083 161.669 492.083 148H490.583C490.583 160.841 480.174 171.25 467.333 171.25V172.75Z" fill="#1D1D28"/>
<path d="M433 171.25C432.586 171.25 432.25 171.586 432.25 172C432.25 172.414 432.586 172.75 433 172.75V171.25ZM433 172.75H492.5V171.25H433V172.75ZM515.75 196V268H517.25V196H515.75ZM492.5 172.75C505.341 172.75 515.75 183.159 515.75 196H517.25C517.25 182.331 506.169 171.25 492.5 171.25V172.75Z" fill="#1D1D28"/>
<path d="M289.25 132C289.25 132.414 289.586 132.75 290 132.75C290.414 132.75 290.75 132.414 290.75 132H289.25ZM290.75 132V76H289.25V132H290.75Z" fill="#1D1D28"/>
<path d="M290.75 212C290.75 211.586 290.414 211.25 290 211.25C289.586 211.25 289.25 211.586 289.25 212H290.75ZM289.25 212V216H290.75V212H289.25ZM266 239.25H238.5V240.75H266V239.25ZM213.75 264V268H215.25V264H213.75ZM238.5 239.25C224.831 239.25 213.75 250.331 213.75 264H215.25C215.25 251.159 225.659 240.75 238.5 240.75V239.25ZM289.25 216C289.25 228.841 278.841 239.25 266 239.25V240.75C279.669 240.75 290.75 229.669 290.75 216H289.25Z" fill="#1D1D28"/>
<path d="M290.75 212C290.75 211.586 290.414 211.25 290 211.25C289.586 211.25 289.25 211.586 289.25 212H290.75ZM289.25 212V216H290.75V212H289.25ZM314 240.75H341.5V239.25H314V240.75ZM364.75 264V268H366.25V264H364.75ZM341.5 240.75C354.341 240.75 364.75 251.159 364.75 264H366.25C366.25 250.331 355.169 239.25 341.5 239.25V240.75ZM289.25 216C289.25 229.669 300.331 240.75 314 240.75V239.25C301.159 239.25 290.75 228.841 290.75 216H289.25Z" fill="#1D1D28"/>
</svg>
