<svg width="454" height="344" viewBox="0 0 454 344" fill="none" xmlns="http://www.w3.org/2000/svg">
<path d="M107.5 76C107.5 75.5858 107.164 75.25 106.75 75.25C106.336 75.25 106 75.5858 106 76H107.5ZM106 76V80H107.5V76H106ZM130.75 104.75H203V103.25H130.75V104.75ZM226.25 128V132H227.75V128H226.25ZM203 104.75C215.841 104.75 226.25 115.159 226.25 128H227.75C227.75 114.331 216.669 103.25 203 103.25V104.75ZM106 80C106 93.669 117.081 104.75 130.75 104.75V103.25C117.909 103.25 107.5 92.8406 107.5 80H106Z" fill="#1D1D28"/>
<path d="M227.75 212C227.75 211.586 227.414 211.25 227 211.25C226.586 211.25 226.25 211.586 226.25 212H227.75ZM226.25 212V216H227.75V212H226.25ZM203 239.25H130.75V240.75H203V239.25ZM106 264V268H107.5V264H106ZM130.75 239.25C117.081 239.25 106 250.331 106 264H107.5C107.5 251.159 117.909 240.75 130.75 240.75V239.25ZM226.25 216C226.25 228.841 215.841 239.25 203 239.25V240.75C216.669 240.75 227.75 229.669 227.75 216H226.25Z" fill="#1D1D28"/>
<path d="M227.75 212C227.75 211.586 227.414 211.25 227 211.25C226.586 211.25 226.25 211.586 226.25 212H227.75ZM226.25 212V216H227.75V212H226.25ZM251 240.75H322.25V239.25H251V240.75ZM345.5 264V268H347V264H345.5ZM322.25 240.75C335.091 240.75 345.5 251.159 345.5 264H347C347 250.331 335.919 239.25 322.25 239.25V240.75ZM226.25 216C226.25 229.669 237.331 240.75 251 240.75V239.25C238.159 239.25 227.75 228.841 227.75 216H226.25Z" fill="#1D1D28"/>
<path d="M347 76C347 75.5858 346.664 75.25 346.25 75.25C345.836 75.25 345.5 75.5858 345.5 76H347ZM345.5 76V80H347V76H345.5ZM322.25 103.25H251V104.75H322.25V103.25ZM226.25 128V132H227.75V128H226.25ZM251 103.25C237.331 103.25 226.25 114.331 226.25 128H227.75C227.75 115.159 238.159 104.75 251 104.75V103.25ZM345.5 80C345.5 92.8406 335.091 103.25 322.25 103.25V104.75C335.919 104.75 347 93.669 347 80H345.5Z" fill="#1D1D28"/>
</svg>
