<svg width="28" height="28" viewBox="0 0 28 28" fill="none" xmlns="http://www.w3.org/2000/svg">
<g clip-path="url(#clip0_11295_198819)">
<path d="M14.5853 14.8724C14.5008 14.8344 14.4164 14.7924 14.333 14.7478C14.3786 14.7188 14.422 14.691 14.4643 14.6643L14.6778 14.8101L14.5853 14.8724ZM14.1174 15.1894L13.8535 15.0093C13.946 14.9659 14.0336 14.9201 14.1174 14.8746C14.2016 14.9201 14.2896 14.9659 14.3831 15.0093L14.1174 15.1894ZM14.6632 15.8789L14.1174 16.256L13.5734 15.8789L14.1174 15.5096L14.6632 15.8789ZM13.5588 14.8101L13.7714 14.6643C13.8125 14.691 13.8559 14.7188 13.9024 14.7478C13.8191 14.7924 13.7355 14.8344 13.6513 14.8724L13.5588 14.8101ZM14.1174 14.4264L14.2707 14.531C14.2228 14.5621 14.1705 14.5933 14.1174 14.6254C14.065 14.5933 14.0138 14.5621 13.9647 14.531L14.1174 14.4264ZM16.1393 13.8737C16.1346 13.8681 16.0234 13.7534 15.829 13.7534C15.7277 13.7534 15.622 13.7859 15.5163 13.8471C15.4974 13.857 15.4861 13.878 15.4896 13.8992C15.4908 13.9049 15.5663 14.4252 15.5085 14.6487C15.4653 14.8167 15.3228 15.0136 15.0634 15.0136C15.008 15.0136 14.9513 15.0048 14.8914 14.9878C14.8914 14.9878 14.889 14.9878 14.889 14.9869L15.0847 14.8545C15.0993 14.8446 15.1083 14.829 15.1083 14.8113C15.1083 14.7936 15.0993 14.7778 15.0847 14.7679L14.6967 14.5008C14.8189 14.4087 14.8968 14.3429 14.9067 14.3341C14.9181 14.324 14.9256 14.3108 14.9256 14.2961C14.9256 14.2818 14.9202 14.2674 14.9091 14.2574L14.84 14.1874C14.83 14.1772 14.8156 14.1718 14.8036 14.1718C14.7923 14.1718 14.78 14.1763 14.771 14.1829C14.7668 14.185 14.6641 14.2641 14.5086 14.3717L14.3531 14.2641L14.9627 13.8447L15.0103 13.966C15.0181 13.9849 15.0346 13.9981 15.0571 13.9993H15.0592C15.0783 13.9993 15.096 13.9882 15.1047 13.9717L15.3952 13.4376C15.4051 13.4199 15.4028 13.3987 15.3917 13.3822C15.3818 13.3678 15.3653 13.3597 15.3483 13.3597H15.3405L14.7399 13.4499C14.7198 13.452 14.7021 13.4664 14.6967 13.4867C14.6922 13.5056 14.6979 13.5266 14.7123 13.541L14.81 13.6269L14.1174 14.1026L13.4264 13.6269L13.5234 13.541C13.5378 13.5266 13.5444 13.5056 13.5378 13.4867C13.5333 13.4664 13.5168 13.452 13.4955 13.4499L12.8949 13.3597H12.8871C12.8695 13.3597 12.8525 13.3678 12.8437 13.3822C12.8324 13.3987 12.8315 13.4199 12.8402 13.4376L13.1295 13.9717C13.1397 13.9882 13.1574 13.9993 13.1762 13.9993H13.1798C13.1996 13.9981 13.2173 13.9849 13.2253 13.966L13.273 13.8447L13.8823 14.2641L13.7268 14.3717C13.5699 14.2641 13.4677 14.185 13.4653 14.1829C13.4554 14.1763 13.4443 14.1718 13.4332 14.1718C13.4188 14.1718 13.4054 14.1772 13.3952 14.1874L13.3251 14.2574C13.3152 14.2674 13.3098 14.2818 13.3098 14.2961C13.311 14.3108 13.3176 14.324 13.3275 14.3341C13.3386 14.3429 13.4153 14.4087 13.5387 14.5008L13.1496 14.7679C13.1361 14.7778 13.1271 14.7936 13.1271 14.8113C13.1283 14.829 13.1361 14.8446 13.1505 14.8545L13.3464 14.9869C13.3464 14.9878 13.3452 14.9878 13.3443 14.9878C13.2841 15.0048 13.2274 15.0136 13.1729 15.0136C12.9138 15.0136 12.7706 14.8167 12.7269 14.6487C12.6691 14.4252 12.746 13.9049 12.746 13.8992C12.7493 13.878 12.7392 13.857 12.7203 13.8471C12.6136 13.7859 12.5077 13.7534 12.4076 13.7534C12.2132 13.7534 12.1008 13.8681 12.0964 13.8737C12.0874 13.8815 12.082 13.8936 12.082 13.9049C12.0787 13.937 12.0194 14.6888 12.3677 15.0692C12.4966 15.2094 12.6646 15.2805 12.8683 15.2805C12.9039 15.2805 12.9426 15.2795 12.9806 15.2738C13.1786 15.2505 13.3719 15.1981 13.5588 15.1315L13.8816 15.3496L13.1661 15.8334C13.1517 15.8445 13.143 15.86 13.143 15.8777C13.143 15.8947 13.1505 15.911 13.1661 15.9212L13.8835 16.4172L13.272 16.8408L13.2253 16.7221C13.2173 16.7042 13.1996 16.691 13.1798 16.6898C13.1786 16.6886 13.1786 16.6886 13.1762 16.6886C13.1574 16.6886 13.1397 16.6997 13.1295 16.7164L12.8402 17.2514C12.8315 17.2682 12.8324 17.2904 12.8437 17.3059C12.8525 17.3203 12.8695 17.3281 12.8871 17.3281H12.8949L13.4955 17.2392C13.5168 17.2359 13.5333 17.2215 13.5378 17.2026C13.5444 17.1825 13.5378 17.1613 13.5234 17.1469L13.4243 17.0591L14.1174 16.5796L14.8112 17.0591L14.7123 17.1469C14.6967 17.1613 14.691 17.1825 14.6967 17.2026C14.7021 17.2215 14.7189 17.2359 14.7399 17.2392L15.3405 17.3281H15.3483C15.3653 17.3281 15.3818 17.3203 15.3917 17.3059C15.4028 17.2904 15.404 17.2682 15.3952 17.2514L15.1047 16.7164C15.096 16.6997 15.0783 16.6886 15.0592 16.6886C15.058 16.6886 15.0571 16.6886 15.0571 16.6898C15.0346 16.691 15.0181 16.7042 15.0103 16.7221L14.9627 16.8408L14.3519 16.4172L15.0691 15.9212C15.0837 15.911 15.0925 15.8947 15.0925 15.8777C15.0925 15.86 15.0837 15.8445 15.0691 15.8334L14.3543 15.3496L14.6778 15.1315C14.8636 15.1981 15.058 15.2505 15.2551 15.2738C15.294 15.2795 15.3318 15.2805 15.3674 15.2805C15.571 15.2805 15.74 15.2094 15.8679 15.0692C16.2169 14.6888 16.1568 13.937 16.1537 13.9049C16.1525 13.8936 16.1469 13.8815 16.1393 13.8737Z" fill="white"/>
<path d="M15.7641 17.7407C15.1989 18.8383 14.1636 19.7327 14.1516 19.7193C14.1391 19.7327 13.1038 18.8383 12.5386 17.7407C11.9737 16.6441 11.6112 14.9211 11.5911 14.0983C11.5711 13.2754 11.7325 12.9226 11.7325 12.9226C11.7325 12.9226 12.4385 12.8839 13.0037 12.6868C13.483 12.5211 14.0046 12.1009 14.1516 11.9786C14.297 12.1009 14.8199 12.5211 15.3004 12.6868C15.8644 12.8839 16.5705 12.9226 16.5705 12.9226C16.5705 12.9226 16.7319 13.2754 16.7106 14.0983C16.6906 14.9211 16.3281 16.6441 15.7641 17.7407ZM15.8177 21.4734C15.8908 21.6147 15.9333 21.8904 15.7086 21.9116C15.5826 21.5824 15.4318 21.3898 15.2447 21.1241C15.071 20.9195 14.8801 20.7081 14.7432 20.4768C15.0502 20.8371 15.6664 21.1963 15.8177 21.4734ZM14.7432 23.1472C14.7854 22.8244 14.7019 22.1039 14.5707 21.6147C14.4808 21.2853 14.1816 20.4211 14.3149 20.1119C14.367 20.519 14.5299 21.1552 14.7644 21.677C14.9311 22.0515 15.1758 22.9226 14.7432 23.1472ZM13.7311 21.6147C13.6065 22.1039 13.5175 22.8244 13.5597 23.1472C13.126 22.9226 13.3716 22.0515 13.5385 21.677C13.7724 21.1552 13.9345 20.519 13.9869 20.1119C14.1214 20.4211 13.8221 21.2853 13.7311 21.6147ZM13.0637 21.1241C12.8702 21.3898 12.7189 21.5824 12.5943 21.9116C12.3696 21.8904 12.4121 21.6147 12.4853 21.4734C12.6365 21.1963 13.2518 20.8371 13.5597 20.4768C13.4229 20.7081 13.2317 20.9162 13.0637 21.1241ZM10.7526 17.5505C10.764 17.6227 10.7739 17.6652 10.8048 17.7129C10.4031 17.7752 10.2321 17.9321 10.0862 18.1868C9.88162 18.5304 10.0954 18.9742 10.0374 19.1576C9.99654 19.2723 9.86179 19.3823 9.64799 19.2822C9.75159 19.7417 10.3255 19.6893 10.4768 19.4335C10.528 19.647 10.4768 19.8929 10.372 19.9864C10.5502 19.9963 10.7014 19.9239 10.7947 19.7827C10.8159 19.825 10.8159 19.883 10.826 19.9338C10.9249 19.883 10.9884 19.825 11.0295 19.7728C11.045 19.824 11.0651 19.9439 11.0406 20.0419C10.9639 20.0942 10.877 20.1419 10.7425 20.2108C10.528 20.3156 10.1386 20.4666 9.91395 20.498C9.73058 20.5289 9.41247 20.4244 9.32893 20.1688C9.25554 19.9239 9.05306 19.8462 8.8907 19.9963C8.84964 19.9652 8.73518 19.9439 8.68728 20.0187C8.68728 20.0187 8.63607 19.9029 8.57259 19.8462C8.61483 19.7204 8.5825 19.5694 8.46805 19.518C8.45813 19.2723 8.30687 19.2723 8.25448 19.1888C8.22356 19.1366 8.22356 19.0731 8.29672 19.0632C8.2658 19.0165 8.20232 19.0066 8.19218 19.0066C8.21247 18.9018 8.18108 18.7718 8.04091 18.7295L6.80409 16.1792C6.88315 16.0957 6.84209 15.9758 6.75218 15.9333V15.9135C6.75973 15.8932 6.76091 15.8776 6.76303 15.8623C6.79654 15.8568 6.83666 15.8488 6.87206 15.8401C7.11678 15.7823 7.49837 15.4231 7.82757 15.1982C7.7117 15.3183 7.23241 15.6676 7.01884 15.8712C6.8199 16.0692 6.90321 16.267 6.93554 16.4452L6.98226 16.544C7.1635 16.5551 7.43489 16.6642 7.63831 16.4973C7.70179 16.435 8.59383 15.3285 8.71277 15.2194C8.66722 15.3183 8.10344 16.0279 7.84858 16.435C7.65955 16.742 7.9366 16.9455 7.96893 17.1222C8.17117 17.0601 8.44799 17.1803 8.59383 16.9355C8.73518 16.7007 9.16775 15.8611 9.32893 15.6253C9.26663 15.8087 8.80716 16.763 8.77625 16.8463C8.66722 17.1701 8.94309 17.2324 9.05306 17.4472C9.2199 17.327 9.5215 17.4205 9.6369 17.1123C9.70934 16.9044 9.89271 16.1792 9.9871 15.9857C9.97648 16.2004 9.91395 16.4872 9.8717 16.8043C9.82946 17.1222 10.1273 17.1123 10.2833 17.2959C10.4345 17.1701 10.7113 17.2015 10.7526 16.9143C10.7947 16.6587 10.8048 16.0381 10.8048 16.0381C10.847 16.0747 10.8683 16.0846 10.915 16.127C11.0184 16.0069 11.2331 16.0069 11.3053 15.8611C11.3374 15.8712 11.3476 15.8922 11.3787 15.9135C11.6133 16.3038 11.6334 17.0601 11.3053 17.327C11.4 17.327 11.5201 17.316 11.5923 17.2848C11.4467 17.5817 11.1229 17.6865 10.7526 17.5505ZM6.99878 14.8178C6.94427 14.8402 6.88079 14.8681 6.83076 14.8891V14.8747C6.88197 14.8558 6.94545 14.8367 6.99878 14.8178ZM12.3486 8.4015C12.9337 8.27596 13.5274 7.94793 13.7943 7.67206C14.0159 7.68551 14.3017 7.6874 14.5185 7.67537C14.7821 7.95336 15.3683 8.27596 15.9531 8.4015C15.6138 8.4015 15.0203 8.37035 14.9466 8.28705C14.9679 8.50062 15.4217 8.74203 15.7185 8.80858C15.4726 8.83973 15.2447 8.80858 15.0502 8.72079C15.1557 8.87206 15.2747 8.98675 15.4726 9.05448C15.2647 9.31029 14.8376 9.47596 14.4138 9.4349C14.5185 9.56044 14.7121 9.63832 14.8801 9.61732C14.4997 10.2245 14.217 10.8473 14.1504 11.5692L14.148 11.5682L14.1469 11.5704C14.0836 10.8473 13.8033 10.2245 13.424 9.61732C13.5954 9.63832 13.7844 9.56044 13.8823 9.4349C13.4552 9.47596 13.0427 9.31029 12.8289 9.05448C13.028 8.98675 13.147 8.87206 13.2518 8.72079C13.0637 8.80858 12.8289 8.83973 12.5842 8.80858C12.8813 8.74203 13.3405 8.50062 13.3606 8.28705C13.2827 8.37035 12.6889 8.4015 12.3486 8.4015ZM16.2505 22.2085C16.3812 22.4331 16.199 22.5943 15.9432 22.5943C15.9432 22.5065 15.9432 22.4754 15.922 22.3699C16.0411 22.3586 16.1804 22.3142 16.2505 22.2085ZM12.3595 22.5943C12.1039 22.5943 11.9215 22.4331 12.0518 22.2085C12.1195 22.3097 12.254 22.3574 12.3696 22.3699C12.3595 22.4754 12.3595 22.5065 12.3595 22.5943ZM6.44397 14.9735H6.40268C6.40032 14.9702 6.39819 14.9669 6.39489 14.9636C6.414 14.9591 6.43406 14.9591 6.45176 14.9535C6.45058 14.9603 6.44728 14.9669 6.44397 14.9735ZM6.13695 15.6253L6.03359 15.5642C6.07442 15.5163 6.11572 15.5163 6.15701 15.543C6.15701 15.5744 6.15701 15.6053 6.13695 15.6253ZM5.9333 15.1883C5.92338 15.1883 5.92338 15.1982 5.91347 15.2083C5.84999 15.1982 5.84999 15.1248 5.86108 15.0625C5.89129 15.0625 5.91347 15.0526 5.9333 15.0314L5.94344 15.0424L5.91347 15.0625C5.92338 15.105 5.92338 15.146 5.9333 15.1883ZM23.1982 12.4546C22.9745 12.3199 22.604 12.2722 22.2285 12.3088C22.8178 12.1053 23.2192 11.6671 23.2402 11.2756C22.9334 11.1876 22.6141 11.2345 22.3383 11.2966C22.624 11.083 23.0937 10.6918 23.0365 10.1178C22.7609 10.0499 22.2538 10.2434 22.0402 10.338C22.7187 9.95643 22.9634 9.05448 22.604 8.54286C22.3906 8.66841 21.4198 9.65838 21.2629 9.77401C21.7646 9.20032 21.9991 8.78758 22.1348 8.4015C22.2962 7.98003 22.3062 7.24492 21.7856 6.99926C21.5399 7.56304 20.679 9.00658 20.1997 9.60717C20.1471 9.56044 20.1053 9.49696 20.0371 9.48705C19.9227 9.85307 19.5836 10.338 19.2754 10.5717C19.2598 10.5405 19.2289 10.457 19.1762 10.368C18.8482 10.8584 17.9975 11.5314 17.7216 11.9439C17.5071 12.2509 17.5071 12.528 17.8049 12.8147C17.925 12.9348 18.1542 13.1486 17.9562 13.4455C17.6869 13.8391 17.1456 13.8849 16.8506 13.6534C16.8506 13.5833 16.8485 13.5165 16.8452 13.4542C17.1923 13.3197 17.2735 12.847 17.0177 12.5535C16.9608 12.6613 16.8688 12.7404 16.7574 12.7793C16.7274 12.6568 16.7007 12.5969 16.6984 12.5912L16.6849 12.5624L16.6547 12.5613C16.6516 12.5601 16.5381 12.5547 16.3682 12.5346C16.5606 12.4711 16.6837 12.2932 16.6571 12.0529C16.3602 12.3088 16.0624 12.064 15.9944 11.9963C15.8075 11.7771 15.7554 11.5314 15.8285 11.1555C15.8908 10.8275 16.2302 10.3057 16.4539 10.1388C16.486 10.17 16.5372 10.2323 16.646 10.2224C16.7095 10.2023 16.814 10.149 16.8919 10.1178C17.1165 10.0499 17.3355 10.1023 17.4769 10.1912C17.7315 10.347 17.7105 10.5193 17.7016 10.645C18.0907 10.4258 17.9562 10.0612 17.4457 9.92528C17.7948 9.92528 18.082 10.2434 18.1542 10.2847C18.3477 10.4258 18.6236 10.3947 18.785 10.3168C19.0941 10.17 19.1564 9.80516 19.0729 9.73177C19.0417 9.86321 18.9429 9.97767 18.7637 9.99891C18.499 10.0298 18.2422 9.91395 18.0397 9.82522C17.8684 9.75301 17.5902 9.70062 17.4035 9.71171C17.7528 9.51844 18.2955 9.53944 18.4879 9.83631C18.6035 9.74286 18.676 9.65838 18.7083 9.46605C18.8072 8.94546 18.4001 8.67855 17.9663 8.67855C17.9774 8.55301 17.8885 8.49071 17.774 8.53271C17.774 8.47962 17.7596 8.43832 17.7303 8.41732C17.7405 8.41613 17.7539 8.41165 17.7629 8.41165C18.2009 8.38144 18.6134 8.24599 18.8369 8.01118C19.2289 7.59301 18.6035 7.06156 18.827 6.65C19.0417 6.74321 19.1987 6.86357 19.4946 6.90487C19.5255 6.96811 19.5524 7.09248 19.5623 7.16044C19.6567 7.62534 19.1987 7.70298 19.3176 8.19808C19.3698 8.42274 19.5378 8.50062 19.5944 8.76776C19.5944 8.76776 19.6157 8.95442 19.4533 9.11702C19.8295 9.12693 20.0272 8.80858 19.9116 8.51171C19.8604 8.39159 19.7292 8.27596 19.7292 8.13602C19.9227 8.39159 20.0952 8.38144 20.3918 8.28705C20.5278 8.24599 20.5388 8.43383 20.4544 8.5851C20.6578 8.4638 20.7113 8.26581 20.7113 8.17802C20.7113 7.96894 20.5488 7.87006 20.3918 7.9123C20.304 7.92221 20.1261 8.04233 20.1162 7.87006C20.0794 7.57295 20.5488 7.5831 20.4544 7.1038C20.4031 6.86357 20.1362 6.73212 19.7193 6.68091C19.678 6.63891 19.5734 6.53979 19.5165 6.45625C19.2876 6.07607 19.0519 5.97696 18.9105 6.05484C18.7437 6.13814 18.6559 6.21177 18.5202 6.28398C18.41 6.3418 18.2955 6.37295 18.2221 6.45625C18.0397 6.68091 18.212 7.03018 18.3055 7.24492C18.3689 7.36953 18.5202 7.65649 18.4525 7.87006C18.3788 8.12563 17.9562 8.28705 17.7016 8.33944C17.6848 8.33944 17.6749 8.3451 17.6581 8.3451V8.24599C17.7315 8.11454 17.7948 7.95903 17.8474 7.81767C18.0197 7.3582 17.7629 7.17153 17.3834 7.08257C17.3355 7.05141 17.2834 7.04032 17.2213 7.06156H17.21L17.2001 7.1392L17.1477 7.12386L17.1588 7.03017H17.1364C17.18 6.99926 17.2001 6.94687 17.2001 6.89472C17.2001 6.83784 17.18 6.7956 17.1588 6.76445H17.21L17.1888 6.74321C17.18 6.72221 17.1588 6.70215 17.1265 6.66982C17.1165 6.65991 17.1064 6.63891 17.1064 6.629C17.1165 6.63891 17.1265 6.65 17.1477 6.65991C17.1687 6.68091 17.2001 6.70215 17.21 6.72221L17.2411 6.74321V6.31631L17.21 6.3418C17.2001 6.35195 17.1687 6.37295 17.1477 6.39395C17.1265 6.41543 17.1165 6.41543 17.1064 6.42534C17.1064 6.41543 17.1165 6.4041 17.1265 6.3831C17.1588 6.36304 17.18 6.33071 17.1888 6.31631L17.21 6.28398H16.7829L16.8041 6.31631C16.8239 6.33071 16.8506 6.36304 16.8718 6.3831C16.882 6.4041 16.8919 6.41543 16.903 6.42534C16.8919 6.41543 16.8718 6.41543 16.8605 6.39395C16.8239 6.37295 16.8041 6.35195 16.7829 6.3418L16.7619 6.31631V6.74321L16.7829 6.72221C16.8041 6.70215 16.8239 6.68091 16.8605 6.65991C16.8718 6.65 16.8919 6.63891 16.903 6.629C16.8919 6.63891 16.882 6.65991 16.8718 6.66982C16.8506 6.70215 16.8239 6.72221 16.8041 6.74321L16.7829 6.76445H16.8506C16.814 6.7956 16.8041 6.83784 16.8041 6.89472C16.8041 6.94687 16.8239 6.99926 16.8605 7.03017H16.8506L16.8605 7.12386L16.8041 7.1392L16.7928 7.06156H16.7829C16.7206 7.04032 16.6684 7.05141 16.6259 7.08257C16.2401 7.17153 15.9845 7.3582 16.1568 7.81767C16.2092 7.95903 16.2724 8.11454 16.3501 8.24599V8.31372C15.9633 8.18817 15.269 7.76552 15.0823 7.5097C15.0611 7.48398 15.0455 7.46298 15.0356 7.4474L15.0335 7.44858L15.0413 7.17153C15.1758 6.94687 15.2961 6.66982 15.3905 6.41543C15.6352 5.75254 15.2747 5.47667 14.7019 5.3608C14.6441 5.31973 14.5707 5.29849 14.4773 5.32988L14.4572 5.43443L14.3373 5.42428L14.3472 5.28858C14.326 5.29849 14.3059 5.29849 14.2849 5.29849C14.367 5.25743 14.4251 5.15738 14.4251 5.05401C14.4251 4.98062 14.3883 4.89141 14.326 4.85035H14.4251C14.367 4.79796 14.2738 4.68776 14.2538 4.61555C14.326 4.63584 14.4362 4.73472 14.4874 4.78805V4.24528C14.4362 4.28658 14.326 4.39112 14.2538 4.40103C14.2738 4.33991 14.367 4.23442 14.4251 4.18203H13.8823C13.9246 4.23442 14.0289 4.33991 14.039 4.40103C13.9758 4.39112 13.8722 4.28658 13.8144 4.24528V4.78805C13.8722 4.73472 13.9758 4.63584 14.039 4.61555C14.0289 4.68776 13.9246 4.79796 13.8823 4.85035H13.9758C13.9135 4.89141 13.8823 4.98062 13.8823 5.05401C13.8823 5.15738 13.9345 5.25743 14.018 5.29849C13.997 5.29849 13.9758 5.29849 13.9446 5.28858L13.9557 5.42428L13.8356 5.43443L13.8243 5.32988C13.7311 5.29849 13.6588 5.31973 13.5954 5.3608C13.028 5.47667 12.6667 5.75254 12.9124 6.41543C12.996 6.66982 13.1161 6.94687 13.2617 7.17153V7.45849C13.2518 7.46841 13.2407 7.48965 13.2206 7.5097C13.0382 7.76552 12.3385 8.18817 11.9526 8.31372V8.24599C12.0305 8.11454 12.0938 7.95903 12.1462 7.81767C12.3184 7.3582 12.0626 7.17153 11.6768 7.08257C11.6334 7.05141 11.5833 7.04032 11.5201 7.06156H11.5102L11.4988 7.1392L11.4467 7.12386L11.4566 7.03017H11.4467C11.4776 6.99926 11.4988 6.94687 11.4988 6.89472C11.4988 6.83784 11.4889 6.7956 11.4566 6.76445H11.5201L11.4988 6.74321C11.4776 6.72221 11.4566 6.70215 11.4365 6.66982C11.4266 6.65991 11.4111 6.63891 11.4 6.629C11.4111 6.63891 11.4365 6.65 11.4467 6.65991C11.4776 6.68091 11.4988 6.70215 11.5201 6.72221L11.5411 6.74321V6.31631L11.5201 6.3418C11.4988 6.35195 11.4776 6.37295 11.4467 6.39395C11.4365 6.41543 11.4111 6.41543 11.4 6.42534C11.4111 6.41543 11.4266 6.4041 11.4365 6.3831C11.4566 6.36304 11.4776 6.33071 11.4988 6.31631L11.5201 6.28398H11.0927L11.113 6.31631C11.1229 6.33071 11.1496 6.36304 11.1708 6.3831C11.1909 6.4041 11.2008 6.41543 11.2008 6.42534C11.1909 6.41543 11.1807 6.41543 11.1607 6.39395C11.134 6.37295 11.1019 6.35195 11.0927 6.3418L11.0606 6.31631V6.74321L11.0927 6.72221C11.1019 6.70215 11.134 6.68091 11.1607 6.65991C11.1807 6.65 11.1909 6.63891 11.2008 6.629C11.2008 6.63891 11.1909 6.65991 11.1708 6.66982C11.1496 6.70215 11.1229 6.72221 11.113 6.74321L11.0927 6.76445H11.1496C11.1229 6.7956 11.1019 6.83784 11.1019 6.89472C11.1019 6.94687 11.1229 6.99926 11.1708 7.03017H11.1496L11.1607 7.12386L11.1019 7.1392L11.0927 7.06156H11.0816C11.0184 7.04032 10.9674 7.05141 10.9249 7.08257C10.5388 7.17153 10.2833 7.3582 10.4555 7.81767C10.5079 7.95903 10.5712 8.11454 10.649 8.24599V8.3451C10.6325 8.3451 10.6179 8.33944 10.6068 8.33944C10.351 8.28705 9.92386 8.12563 9.85046 7.87006C9.7825 7.65649 9.93518 7.36953 9.99654 7.24492C10.0954 7.03018 10.263 6.68091 10.0862 6.45625C10.0074 6.37295 9.89271 6.3418 9.7825 6.28398C9.64799 6.21177 9.56374 6.13814 9.39241 6.05484C9.25554 5.97696 9.02191 6.07607 8.78639 6.45625C8.73518 6.53979 8.62498 6.63891 8.5825 6.68091C8.17117 6.73212 7.90521 6.86357 7.84858 7.1038C7.753 7.5831 8.22356 7.57295 8.19218 7.87006C8.18108 8.04233 7.99985 7.92221 7.91513 7.9123C7.753 7.87006 7.59159 7.96894 7.59159 8.17802C7.59159 8.26581 7.6494 8.4638 7.84858 8.5851C7.76504 8.43383 7.77495 8.24599 7.91513 8.28705C8.21247 8.38144 8.37908 8.39159 8.57259 8.13602C8.57259 8.27596 8.44799 8.39159 8.39135 8.51171C8.27572 8.80858 8.46805 9.12693 8.84964 9.11702C8.67713 8.95442 8.71277 8.76776 8.71277 8.76776C8.76634 8.50062 8.93318 8.42274 8.98982 8.19808C9.10545 7.70298 8.64622 7.62534 8.7451 7.16044C8.75501 7.09248 8.77625 6.96811 8.80716 6.90487C9.10545 6.86357 9.26663 6.74321 9.47477 6.65C9.68929 7.06156 9.07312 7.59301 9.46462 8.01118C9.68928 8.24599 10.1063 8.38144 10.5388 8.41165C10.5478 8.41165 10.5624 8.41731 10.5735 8.41849C10.5436 8.43832 10.528 8.47962 10.528 8.53271C10.4145 8.49071 10.3255 8.55301 10.3411 8.67855C9.89271 8.67855 9.49672 8.94546 9.59465 9.46605C9.6258 9.65838 9.6992 9.74286 9.81955 9.83631C10.0074 9.53944 10.5502 9.51844 10.9039 9.71171C10.7113 9.70062 10.4345 9.75301 10.263 9.82522C10.064 9.91395 9.80964 10.0298 9.54368 9.99891C9.35985 9.97767 9.26663 9.86321 9.23005 9.73177C9.14651 9.80516 9.20905 10.17 9.5215 10.3168C9.67819 10.3947 9.95524 10.4258 10.1476 10.2847C10.221 10.2434 10.5079 9.92528 10.8584 9.92528C10.351 10.0612 10.2099 10.4258 10.6068 10.645C10.5912 10.5193 10.5712 10.347 10.826 10.1912C10.9674 10.1023 11.1909 10.0499 11.4111 10.1178C11.4889 10.149 11.5923 10.2023 11.6558 10.2224C11.7648 10.2323 11.8167 10.17 11.8479 10.1388C12.0728 10.3057 12.4008 10.8275 12.4744 11.1555C12.5523 11.5314 12.4952 11.7771 12.3076 11.9963C12.245 12.064 11.9427 12.3088 11.6459 12.0529C11.618 12.292 11.7412 12.4702 11.934 12.5346C11.7613 12.5535 11.6459 12.5601 11.6423 12.5613L11.6121 12.5624L11.6001 12.5912C11.5968 12.5969 11.5711 12.6568 11.5401 12.7781C11.4321 12.7371 11.341 12.6601 11.2853 12.5535C11.0295 12.8459 11.1085 13.3155 11.4524 13.4521C11.4488 13.5165 11.4467 13.5857 11.4467 13.6567C11.1519 13.8837 10.6158 13.837 10.351 13.4455C10.1476 13.1486 10.3821 12.9348 10.498 12.8147C10.7947 12.528 10.7947 12.2509 10.5801 11.9439C10.3043 11.5314 9.45377 10.8584 9.12645 10.368C9.07312 10.457 9.04221 10.5405 9.03088 10.5717C8.72386 10.338 8.37908 9.85307 8.2658 9.48705C8.20232 9.49696 8.1556 9.56044 8.10344 9.60717C7.6284 9.00658 6.76303 7.56304 6.51831 6.99926C6.00126 7.24492 6.01117 7.98003 6.16928 8.4015C6.30828 8.78758 6.54403 9.20032 7.0389 9.77401C6.88315 9.65838 5.91347 8.66841 5.69872 8.54286C5.33955 9.05448 5.58403 9.95643 6.26132 10.338C6.05365 10.2434 5.54203 10.0499 5.26616 10.1178C5.214 10.6918 5.67772 11.083 5.96468 11.2966C5.68881 11.2345 5.3707 11.1876 5.0625 11.2756C5.08374 11.6671 5.48964 12.1053 6.06356 12.3088C5.69872 12.2722 5.32846 12.3199 5.10356 12.4546C5.14604 12.8614 5.60527 13.2119 6.15701 13.2954C5.78675 13.3365 5.45849 13.4988 5.28716 13.7223C5.48964 13.9883 5.78675 14.1917 6.24126 14.1818C6.13695 14.2184 6.01684 14.2906 5.91347 14.3897C5.90215 14.3796 5.88114 14.3696 5.86108 14.3696C5.8389 14.3796 5.82993 14.4109 5.8389 14.4319V14.4475C5.79548 14.4787 5.77094 14.5143 5.76669 14.5521C5.72421 14.6122 5.68103 14.6833 5.65743 14.7446C5.66875 14.7501 5.67772 14.7602 5.68881 14.7656C5.68433 14.8013 5.69212 14.8411 5.71878 14.8803C5.69872 14.9013 5.68881 14.9325 5.67772 14.9636L5.41176 14.8591C5.39737 15.1005 5.4507 15.2994 5.57294 15.4231C5.66875 15.5319 5.7766 15.5163 5.74545 15.5531L6.03359 15.7299C6.08456 15.8401 6.18934 15.8401 6.26132 15.8087V15.8299C6.26132 15.9446 6.34038 16.0381 6.44397 16.0747C6.42392 16.1693 6.46498 16.2314 6.59619 16.2738L7.68055 18.9018C7.63831 19.0264 7.68055 19.1366 7.77495 19.1777C7.753 19.2088 7.73294 19.2409 7.73294 19.3035C7.77495 19.2723 7.83749 19.2612 7.86864 19.3502C7.88869 19.4122 7.77495 19.6159 7.94769 19.7516C7.92527 19.8717 7.98875 19.9963 8.11336 20.0496C8.11336 20.1119 8.17117 20.3156 8.18108 20.3878C8.10344 20.498 7.92527 20.6649 7.94769 20.8473C7.96893 20.9785 8.0199 21.0196 8.12445 21.0507C8.0822 21.2853 8.21247 21.3898 8.41141 21.4011C8.41141 21.5722 8.57259 21.6345 8.67713 21.6445C8.77625 21.7178 8.81825 21.749 8.93318 21.807C8.8284 21.9314 8.90179 22.094 9.09412 22.1462C9.11536 22.2186 9.16775 22.2819 9.27678 22.3076C9.34002 22.4119 9.45377 22.4119 9.5215 22.3807C9.56374 22.3597 9.6369 22.2396 9.57365 22.1351C9.61589 22.0827 9.59465 21.9838 9.56374 21.9215C9.6258 21.807 9.57365 21.6657 9.48563 21.6246C9.49672 21.5611 9.46462 21.4623 9.44362 21.4011C9.59465 21.3065 9.7825 21.1864 9.85046 21.1451C10.221 20.8794 10.638 20.6436 11.113 20.6122C11.2331 20.6014 11.4566 20.5915 11.5833 20.6014C11.7759 20.6224 12.0416 20.6804 12.1974 20.5601C12.245 20.5289 12.2764 20.4768 12.2663 20.4244C12.245 20.3045 12.115 20.1997 12.0728 20.0907C12.0617 20.0574 12.0416 20.0095 12.0216 19.9663C12.1572 19.9906 12.2819 19.9708 12.3595 19.9338C12.4433 19.9029 12.6467 19.7516 12.6365 19.5281C12.4744 19.606 12.0827 19.7105 12.0416 19.3134C11.9994 18.9641 12.3076 18.6672 12.7878 18.7975C13.1161 18.8808 13.5954 19.5793 13.1571 19.883C12.9436 20.0286 12.6155 20.1688 12.6578 20.5502C12.798 20.3777 12.9849 20.2944 13.2296 20.3156C12.8702 20.5813 12.5943 20.6122 12.2186 20.8159C11.8903 21.0085 11.6459 21.3278 11.3889 21.3377C11.1909 21.3476 11.0816 21.113 11.2742 20.9306C11.0816 20.8893 10.826 21.0406 10.7526 21.243C10.6592 21.5201 10.7314 21.7178 10.9039 21.8281C10.6703 21.9527 10.498 22.1983 10.5801 22.5476C10.6592 22.8345 10.9462 22.8345 10.8371 23.1994C10.9985 23.1571 11.1019 23.0481 11.1496 22.8914C11.1708 22.7824 11.1909 22.6677 11.2442 22.6155C11.222 22.8345 11.3476 23.1571 11.6459 23.3039C11.8479 23.403 12.1674 23.4441 12.4121 23.1895C12.511 23.4764 12.8489 23.7209 13.1994 23.711C13.3606 23.711 13.5175 23.6421 13.6376 23.5708C13.7211 23.7832 13.9345 23.998 14.148 24.1016C14.367 23.998 14.5818 23.7832 14.6698 23.5708C14.7854 23.6421 14.9466 23.711 15.1036 23.711C15.4417 23.7209 15.7964 23.4764 15.8908 23.1895C16.1355 23.4441 16.4539 23.403 16.6571 23.3039C16.9554 23.1571 17.08 22.8345 17.0597 22.6155C17.1165 22.6677 17.1364 22.7824 17.1588 22.8914C17.2001 23.0481 17.3032 23.1571 17.4658 23.1994C17.3568 22.8345 17.6494 22.8345 17.7216 22.5476C17.8049 22.1983 17.6326 21.9527 17.4035 21.8281C17.5703 21.7178 17.6494 21.5201 17.5491 21.243C17.4769 21.0406 17.2213 20.8893 17.0276 20.9306C17.2213 21.113 17.1165 21.3476 16.9129 21.3377C16.6571 21.3278 16.4126 21.0085 16.0834 20.8159C15.7086 20.6122 15.4318 20.5813 15.0722 20.3156C15.3169 20.2944 15.5106 20.3777 15.6452 20.5502C15.6874 20.1688 15.3594 20.0286 15.1446 19.883C14.7121 19.5793 15.1869 18.8808 15.5206 18.7975C15.9944 18.6672 16.308 18.9641 16.2611 19.3134C16.2092 19.7105 15.8285 19.606 15.6562 19.5281C15.6562 19.7516 15.8585 19.9029 15.9432 19.9338C16.0411 19.9807 16.2212 20.005 16.3836 19.9361C16.3781 19.9751 16.3713 20.0176 16.3713 20.0286C16.3394 20.3678 16.1568 20.3989 16.2191 20.5391C16.308 20.6436 16.8919 20.6224 17.0486 20.6547C17.3256 20.6913 17.5604 20.7949 17.8262 20.8473C18.1233 20.9096 18.4411 20.9096 18.7083 21.0196C18.8794 21.0929 19.0729 21.2331 19.2397 21.3164C19.4946 21.3587 19.4533 21.4623 19.6157 21.4623C19.7613 21.4623 19.8181 21.3377 20.0062 21.2853C20.1362 21.2544 20.2819 21.3065 20.4119 21.2643C20.5067 21.243 20.5488 21.1451 20.6377 21.0929C20.7425 21.0297 20.8881 21.0297 20.9872 20.9405C21.0394 20.895 21.0493 20.806 21.0415 20.7437L21.0436 20.7581C21.2428 20.6179 21.3938 20.4145 21.4776 20.1787C21.5298 20.1688 21.5708 20.1221 21.5708 20.0697V20.0496C21.6232 20.0074 21.6544 19.9439 21.6544 19.883C21.6544 19.8037 21.6232 19.7417 21.5708 19.6893V19.6681C21.5708 19.627 21.5498 19.5958 21.5298 19.5694C21.4465 19.1154 21.1014 18.7505 20.6578 18.6361V18.6148H20.6479C20.6479 18.5938 20.6377 18.5827 20.6221 18.5827C20.5587 18.5204 20.4853 18.4225 20.4765 18.359C20.5488 18.3803 20.6689 18.4947 20.7312 18.5417V17.942C20.6689 17.9888 20.5488 18.1035 20.4765 18.1245C20.4853 18.0511 20.6 17.9208 20.6578 17.8686H20.0482C20.1053 17.9208 20.2196 18.0511 20.2297 18.1245C20.1572 18.1035 20.0371 17.9888 19.9751 17.942V18.5417C20.0371 18.4947 20.1572 18.3803 20.2297 18.359C20.2196 18.4324 20.1053 18.5627 20.0482 18.6148L20.0695 18.625C19.6157 18.7295 19.2499 19.1055 19.1663 19.5694C19.1352 19.5958 19.1139 19.627 19.1139 19.6681V19.6893C19.0618 19.7417 19.0306 19.8037 19.0306 19.883C19.0306 19.9439 19.0618 20.0074 19.1139 20.0496V20.0697C19.1139 20.1377 19.1564 20.1688 19.2076 20.1787C19.2289 20.2365 19.2541 20.2944 19.2808 20.3465C19.2808 20.3411 19.2808 20.3411 19.2876 20.3357C19.2499 20.5079 19.0417 20.6122 18.9948 20.6122C18.6236 20.6649 18.212 20.5079 17.8361 20.3678C17.6704 20.3045 17.4457 20.2323 17.3355 20.0697C17.2678 19.9519 17.239 19.8774 17.2735 19.7728C17.3145 19.825 17.3834 19.883 17.4769 19.9338C17.487 19.883 17.487 19.825 17.5071 19.7827C17.6024 19.9239 17.7528 19.9963 17.9349 19.9864C17.8262 19.8929 17.774 19.647 17.8262 19.4335C17.9774 19.6893 18.5513 19.7417 18.6559 19.2822C18.4411 19.3823 18.3055 19.2723 18.2644 19.1576C18.2009 18.9742 18.41 18.5304 18.2221 18.1868C18.0706 17.9321 17.8998 17.7752 17.4981 17.7129C17.529 17.6652 17.5392 17.6227 17.5491 17.5505C17.18 17.6865 16.8605 17.5817 16.7095 17.2848C16.7829 17.316 16.8919 17.327 16.9964 17.327C16.6684 17.0601 16.6885 16.3038 16.9242 15.9135C16.9554 15.8922 16.9653 15.8712 16.9964 15.8611C17.0686 16.0069 17.2834 16.0069 17.3922 16.127C17.4347 16.0846 17.4557 16.0747 17.4981 16.0381C17.4981 16.0381 17.5071 16.6587 17.5491 16.9143C17.5902 17.2015 17.8684 17.1701 18.0086 17.2959C18.1754 17.1123 18.478 17.1222 18.4312 16.8043C18.389 16.4872 18.3267 16.2004 18.3165 15.9857C18.41 16.1792 18.5924 16.9044 18.666 17.1123C18.785 17.4205 19.0828 17.327 19.2499 17.4472C19.3598 17.2324 19.6357 17.1701 19.5255 16.8463C19.4946 16.763 19.0417 15.8087 18.974 15.6253C19.1352 15.8611 19.5734 16.7007 19.7091 16.9355C19.8604 17.1803 20.1362 17.0601 20.3342 17.1222C20.372 16.9455 20.6377 16.742 20.4444 16.435C20.1997 16.0279 19.6256 15.3183 19.5944 15.2194C19.7091 15.3285 20.6 16.435 20.6689 16.4973C20.877 16.6797 21.1793 16.5386 21.3573 16.5386C21.3573 16.3361 21.5187 16.1058 21.2853 15.8712C21.0703 15.6676 20.5799 15.3183 20.4765 15.1982C20.8034 15.4231 21.1904 15.7823 21.4198 15.8401C21.8266 15.9446 21.9725 15.7823 22.1247 15.72C21.9991 15.3497 22.166 15.1784 21.3051 14.8178C22.0503 15.0837 22.3793 14.9525 22.6453 14.7446C22.5407 14.4787 22.275 14.2552 22.0603 14.1818C22.515 14.1917 22.8178 13.9883 23.0158 13.7223C22.8487 13.4988 22.515 13.3365 22.1348 13.2954C22.6974 13.2119 23.1458 12.8614 23.1982 12.4546Z" fill="white"/>
</g>
<rect x="0.5" y="0.5" width="27" height="27" rx="13.5" stroke="#3F3F48"/>
<defs>
<clipPath id="clip0_11295_198819">
<rect width="20" height="20" fill="white" transform="translate(4 4)"/>
</clipPath>
</defs>
</svg>
