<svg width="16" height="16" viewBox="0 0 16 16" fill="none" xmlns="http://www.w3.org/2000/svg">
<path d="M10.5333 1.47317C10.26 1.19983 9.78662 1.3865 9.78662 1.7665V4.09317C9.78662 5.0665 10.6133 5.87317 11.62 5.87317C12.2533 5.87983 13.1333 5.87983 13.8866 5.87983C14.2666 5.87983 14.4666 5.43317 14.2 5.1665C13.24 4.19983 11.52 2.45983 10.5333 1.47317Z" fill="white"/>
<path d="M13.6667 6.7935H11.7401C10.1601 6.7935 8.87342 5.50683 8.87342 3.92683V2.00016C8.87342 1.6335 8.57342 1.3335 8.20675 1.3335H5.38008C3.32675 1.3335 1.66675 2.66683 1.66675 5.04683V10.9535C1.66675 13.3335 3.32675 14.6668 5.38008 14.6668H10.6201C12.6734 14.6668 14.3334 13.3335 14.3334 10.9535V7.46016C14.3334 7.09349 14.0334 6.7935 13.6667 6.7935ZM7.66675 11.8335H5.00008C4.72675 11.8335 4.50008 11.6068 4.50008 11.3335C4.50008 11.0602 4.72675 10.8335 5.00008 10.8335H7.66675C7.94008 10.8335 8.16675 11.0602 8.16675 11.3335C8.16675 11.6068 7.94008 11.8335 7.66675 11.8335ZM9.00008 9.16683H5.00008C4.72675 9.16683 4.50008 8.94016 4.50008 8.66683C4.50008 8.3935 4.72675 8.16683 5.00008 8.16683H9.00008C9.27342 8.16683 9.50008 8.3935 9.50008 8.66683C9.50008 8.94016 9.27342 9.16683 9.00008 9.16683Z" fill="white"/>
</svg>
