<svg width="440" height="502" viewBox="0 0 440 502" fill="none" xmlns="http://www.w3.org/2000/svg">
<path fill-rule="evenodd" clip-rule="evenodd" d="M150.826 501.066C200.998 505.771 241.634 466.673 288.139 447.266C338.583 426.215 413.396 433.114 434.491 382.689C456.023 331.222 404.477 278.836 379.466 228.967C362.52 195.18 333.472 172.313 313.031 140.519C285.057 97.0087 285.012 30.6928 238.049 9.00973C190.832 -12.7906 132.52 9.2625 88.4075 36.809C46.7855 62.8004 20.5807 107.42 5.61878 154.154C-7.55343 195.298 7.94636 237.364 10.3914 280.495C13.1392 328.967 -5.26091 381.244 20.8136 422.198C48.7194 466.028 99.0932 496.215 150.826 501.066Z" fill="#0EBA80" fill-opacity="0.1"/>
</svg>
