<svg width="123" height="42" viewBox="0 0 123 42" fill="none" xmlns="http://www.w3.org/2000/svg">
<path d="M1.08625 6.46738C2.50274 5.0581 4.82544 5.04482 6.01436 6.64888C9.06107 10.7595 10.7335 15.7576 10.7335 20.9272C10.7335 26.0969 9.06108 31.095 6.01436 35.2056C4.82545 36.8097 2.50275 36.7964 1.08626 35.3871C-0.33023 33.9778 -0.28978 31.7074 0.793049 30.0307C2.53329 27.3359 3.47919 24.1801 3.47918 20.9272C3.47918 17.6744 2.53329 14.5186 0.793044 11.8238C-0.289786 10.147 -0.330238 7.87667 1.08625 6.46738Z" fill="#FA8244"/>
<path d="M27.9137 35.3871C26.4973 36.7964 24.1746 36.8097 22.9856 35.2056C19.9389 31.095 18.2665 26.0969 18.2665 20.9273C18.2665 15.7576 19.9389 10.7595 22.9856 6.6489C24.1745 5.04484 26.4972 5.05811 27.9137 6.4674C29.3302 7.87668 29.2898 10.1471 28.2069 11.8238C26.4667 14.5186 25.5208 17.6744 25.5208 20.9273C25.5208 24.1801 26.4667 27.3359 28.207 30.0307C29.2898 31.7075 29.3302 33.9778 27.9137 35.3871Z" fill="#FA8244"/>
<path d="M1.17956 12.4271C10.1552 20.3453 20.3635 18.8112 27.8601 12.4268C24.8032 17.4394 24.9466 24.5363 27.8573 29.4279C18.4571 23.9426 12.2287 23.3078 1.16845 29.4281C4.13923 24.2325 4.2095 18.0455 1.17956 12.4271Z" fill="url(#paint0_linear_11295_199569)"/>
<path d="M1.17956 12.4271C10.1552 20.3453 20.3635 18.8112 27.8601 12.4268C24.8032 17.4394 24.9466 24.5363 27.8573 29.4279C18.4571 23.9426 12.2287 23.3078 1.16845 29.4281C4.13923 24.2325 4.2095 18.0455 1.17956 12.4271Z" fill="url(#paint1_linear_11295_199569)" fill-opacity="0.34"/>
<path d="M50.6918 29.7563V19.5414L46.7023 27.1478H45.0145L41.025 19.5414V29.7563H38V14.1929H41.2442L45.8475 23.0487L50.4946 14.1929H53.7168V29.7563H50.6918Z" fill="white"/>
<path d="M61.7933 29.9755C60.858 29.9755 60.0177 29.822 59.2724 29.5151C58.5271 29.1936 57.8915 28.7552 57.3654 28.1999C56.8539 27.6446 56.4593 27.0089 56.1817 26.2929C55.904 25.5768 55.7652 24.8242 55.7652 24.0351C55.7652 23.2313 55.904 22.4714 56.1817 21.7554C56.4593 21.0393 56.8539 20.4036 57.3654 19.8483C57.8915 19.293 58.5271 18.8619 59.2724 18.555C60.0177 18.2335 60.858 18.0728 61.7933 18.0728C62.7285 18.0728 63.5615 18.2335 64.2922 18.555C65.0375 18.8619 65.6732 19.293 66.1992 19.8483C66.7253 20.4036 67.1199 21.0393 67.3829 21.7554C67.6606 22.4714 67.7994 23.2313 67.7994 24.0351C67.7994 24.8242 67.6606 25.5768 67.3829 26.2929C67.1199 27.0089 66.7253 27.6446 66.1992 28.1999C65.6878 28.7552 65.0594 29.1936 64.3141 29.5151C63.5688 29.822 62.7285 29.9755 61.7933 29.9755ZM58.7902 24.0351C58.7902 24.7073 58.9217 25.3065 59.1847 25.8325C59.4478 26.344 59.8058 26.7459 60.2588 27.0382C60.7119 27.3304 61.2233 27.4766 61.7933 27.4766C62.3486 27.4766 62.8527 27.3304 63.3058 27.0382C63.7588 26.7313 64.1168 26.3221 64.3799 25.8106C64.6575 25.2845 64.7963 24.6854 64.7963 24.0132C64.7963 23.3555 64.6575 22.7637 64.3799 22.2376C64.1168 21.7115 63.7588 21.3023 63.3058 21.0101C62.8527 20.7178 62.3486 20.5717 61.7933 20.5717C61.2233 20.5717 60.7119 20.7251 60.2588 21.032C59.8058 21.3243 59.4478 21.7334 59.1847 22.2595C58.9217 22.771 58.7902 23.3629 58.7902 24.0351Z" fill="white"/>
<path d="M74.0126 29.9755C73.0335 29.9755 72.0982 29.8147 71.2068 29.4932C70.3154 29.1717 69.5482 28.6968 68.9052 28.0684L69.9574 26.1613C70.6442 26.7167 71.3164 27.1258 71.974 27.3889C72.6463 27.6519 73.2892 27.7834 73.903 27.7834C74.4729 27.7834 74.926 27.6811 75.2621 27.4766C75.6128 27.272 75.7882 26.9651 75.7882 26.5559C75.7882 26.2782 75.6932 26.0664 75.5032 25.9202C75.3132 25.7595 75.0356 25.6206 74.6702 25.5037C74.3195 25.3868 73.8884 25.2553 73.3769 25.1092C72.5293 24.8315 71.8206 24.5612 71.2507 24.2981C70.6807 24.0351 70.2496 23.7063 69.9574 23.3117C69.6797 22.9025 69.5409 22.3837 69.5409 21.7554C69.5409 20.9955 69.7309 20.3452 70.1108 19.8045C70.5054 19.2491 71.0461 18.818 71.7329 18.5112C72.4344 18.2043 73.2527 18.0508 74.188 18.0508C75.0063 18.0508 75.7808 18.1824 76.5115 18.4454C77.2422 18.6938 77.9071 19.103 78.5063 19.6729L77.3226 21.5362C76.738 21.0831 76.1827 20.7543 75.6566 20.5498C75.1306 20.3305 74.5972 20.2209 74.0565 20.2209C73.7496 20.2209 73.4573 20.2575 73.1796 20.3305C72.9166 20.4036 72.6974 20.5278 72.522 20.7032C72.3613 20.8639 72.2809 21.0978 72.2809 21.4046C72.2809 21.6823 72.354 21.9015 72.5001 22.0622C72.6609 22.2084 72.8947 22.3399 73.2016 22.4568C73.5231 22.5737 73.9103 22.7052 74.3633 22.8514C75.284 23.1144 76.0585 23.3848 76.6869 23.6624C77.3299 23.9401 77.8121 24.2835 78.1336 24.6927C78.4551 25.0872 78.6159 25.6353 78.6159 26.3367C78.6159 27.4766 78.1994 28.368 77.3664 29.011C76.5334 29.654 75.4155 29.9755 74.0126 29.9755Z" fill="white"/>
<path d="M87.4324 29.1644C87.184 29.2667 86.8844 29.3836 86.5337 29.5151C86.183 29.6467 85.803 29.749 85.3939 29.822C84.9993 29.9097 84.5974 29.9535 84.1882 29.9535C83.6475 29.9535 83.1507 29.8586 82.6977 29.6686C82.2447 29.4786 81.8793 29.179 81.6017 28.7699C81.3386 28.3461 81.2071 27.7981 81.2071 27.1258V20.5278H79.6946V18.27H81.2071V14.5436H84.1444V18.27H86.5556V20.5278H84.1444V26.1394C84.159 26.534 84.2686 26.8189 84.4732 26.9943C84.6778 27.1697 84.9335 27.2574 85.2404 27.2574C85.5473 27.2574 85.8469 27.2062 86.1392 27.1039C86.4314 27.0016 86.6652 26.9139 86.8406 26.8409L87.4324 29.1644Z" fill="white"/>
<path d="M90.2383 30.8726L94.334 20.5425H93.1562L89.084 30.8726H90.2383ZM99.0191 30.0405C99.5113 30.0405 99.9371 29.9312 100.296 29.7124C100.656 29.4897 100.933 29.1753 101.129 28.769C101.328 28.3589 101.427 27.8765 101.427 27.3218V26.1616C101.427 25.603 101.328 25.1206 101.129 24.7144C100.933 24.3081 100.656 23.9956 100.296 23.7769C99.9371 23.5542 99.5113 23.4429 99.0191 23.4429C98.5582 23.4429 98.1676 23.5405 97.8473 23.7358C97.527 23.9272 97.3023 24.2026 97.1734 24.562H97.0563V21.0581H95.8492V29.9351H97.0328V28.9272H97.1441C97.2926 29.2866 97.527 29.562 97.8473 29.7534C98.1676 29.9448 98.5582 30.0405 99.0191 30.0405ZM98.6324 28.9976C98.1402 28.9976 97.7496 28.8374 97.4605 28.5171C97.1715 28.1929 97.027 27.7573 97.027 27.2104V26.2554C97.027 25.7046 97.1715 25.269 97.4605 24.9487C97.7496 24.6245 98.1402 24.4624 98.6324 24.4624C99.1246 24.4624 99.5152 24.6245 99.8043 24.9487C100.093 25.269 100.238 25.7046 100.238 26.2554V27.2104C100.238 27.7534 100.093 28.187 99.8043 28.5112C99.5152 28.8354 99.1246 28.9976 98.6324 28.9976ZM105.415 24.3862C105.9 24.3862 106.277 24.5483 106.546 24.8726C106.82 25.1929 106.956 25.6382 106.956 26.2085H103.827C103.827 25.6343 103.968 25.187 104.249 24.8667C104.53 24.5464 104.919 24.3862 105.415 24.3862ZM106.968 28.2476C106.89 28.5093 106.718 28.7163 106.452 28.8687C106.187 29.0171 105.864 29.0913 105.486 29.0913C104.982 29.0913 104.579 28.9312 104.279 28.6108C103.978 28.2905 103.827 27.8608 103.827 27.3218V27.0347H108.111V26.3433C108.111 25.7378 108.003 25.2183 107.788 24.7847C107.573 24.3472 107.265 24.0112 106.863 23.7769C106.464 23.5425 105.986 23.4253 105.427 23.4253C104.876 23.4253 104.394 23.5425 103.98 23.7769C103.566 24.0073 103.243 24.3315 103.013 24.7495C102.786 25.1636 102.673 25.6519 102.673 26.2144V27.187C102.673 28.0972 102.919 28.8042 103.411 29.3081C103.904 29.8081 104.597 30.0581 105.491 30.0581C105.952 30.0581 106.368 29.9819 106.739 29.8296C107.111 29.6772 107.415 29.4663 107.654 29.1968C107.892 28.9233 108.038 28.6069 108.093 28.2476H106.968ZM111.003 21.8022V23.5835H109.315V24.5503H111.003V28.0015C111.003 28.4585 111.085 28.8315 111.249 29.1206C111.417 29.4097 111.673 29.6226 112.016 29.7593C112.364 29.8921 112.809 29.9585 113.352 29.9585C113.563 29.9585 113.796 29.9526 114.05 29.9409C114.304 29.9331 114.505 29.9233 114.653 29.9116V28.9507C114.509 28.9624 114.325 28.9702 114.102 28.9741C113.884 28.978 113.661 28.98 113.434 28.98C113.028 28.98 112.718 28.896 112.503 28.728C112.288 28.5601 112.18 28.3179 112.18 28.0015V24.5503H114.688V23.5835H112.163V21.8022H111.003ZM118.272 30.0405C118.721 30.0405 119.11 29.9526 119.438 29.7769C119.77 29.5972 120.012 29.3413 120.164 29.0093H120.276V29.9409H121.395V25.5757C121.395 24.9038 121.184 24.3843 120.762 24.0171C120.344 23.646 119.748 23.4604 118.975 23.4604C118.518 23.4604 118.108 23.5347 117.745 23.6831C117.385 23.8315 117.094 24.0386 116.871 24.3042C116.653 24.5698 116.524 24.8784 116.485 25.23H117.633C117.711 24.98 117.866 24.7847 118.096 24.644C118.327 24.5034 118.612 24.4331 118.952 24.4331C119.362 24.4331 119.676 24.5327 119.895 24.7319C120.118 24.9312 120.229 25.2124 120.229 25.5757V26.1382L118.553 26.2261C117.811 26.269 117.241 26.4546 116.842 26.7827C116.444 27.1069 116.245 27.5522 116.245 28.1187C116.245 28.6968 116.43 29.1616 116.801 29.5132C117.172 29.8647 117.663 30.0405 118.272 30.0405ZM118.635 29.062C118.26 29.062 117.963 28.9722 117.745 28.7925C117.526 28.6128 117.416 28.3706 117.416 28.0659C117.416 27.4331 117.848 27.0933 118.711 27.0464L120.229 26.9702V27.644C120.229 27.9136 120.159 28.1558 120.018 28.3706C119.881 28.5854 119.692 28.7554 119.45 28.8804C119.211 29.0015 118.94 29.062 118.635 29.062Z" fill="#5656FF"/>
<defs>
<linearGradient id="paint0_linear_11295_199569" x1="27.6129" y1="20.9271" x2="2.57533" y2="20.4529" gradientUnits="userSpaceOnUse">
<stop stop-color="#FF09D0" stop-opacity="0.87"/>
<stop offset="1" stop-color="#1D3CF8" stop-opacity="0.63"/>
</linearGradient>
<linearGradient id="paint1_linear_11295_199569" x1="26.9577" y1="21.5411" x2="21.0353" y2="21.5641" gradientUnits="userSpaceOnUse">
<stop stop-color="white"/>
<stop offset="1" stop-color="white" stop-opacity="0"/>
</linearGradient>
</defs>
</svg>
